<svg width="594" height="714" viewBox="0 0 594 714" fill="none" xmlns="http://www.w3.org/2000/svg">
<g opacity="0.4">
<ellipse cx="53.0693" cy="52.8667" rx="53.0693" ry="52.8667" transform="matrix(-1 0 0 1 558.307 119.684)" stroke="#7D61BA" stroke-width="32.2933"/>
<ellipse cx="99.505" cy="103.09" rx="99.505" ry="103.09" transform="matrix(-1 0 0 1 603.416 101.18)" stroke="#856CC5" stroke-width="32.2933"/>
<ellipse cx="140.634" cy="144.062" rx="140.634" ry="144.062" transform="matrix(-1 0 0 1 635.257 84.9634)" stroke="#947FC9" stroke-width="32.2933"/>
<ellipse cx="192.376" cy="198.25" rx="192.376" ry="198.25" transform="matrix(-1 0 0 1 677.713 50.5996)" stroke="#A793CD" stroke-width="32.2933"/>
<ellipse cx="240.139" cy="248.473" rx="240.139" ry="248.473" transform="matrix(-1 0 0 1 709.554 19.5234)" stroke="#BEB1D7" stroke-width="32.2933"/>
<ellipse cx="294.535" cy="293.41" rx="294.535" ry="293.41" transform="matrix(-1 0 0 1 746.703 -17.4834)" stroke="#CEC3DB" stroke-width="32.2933"/>
<ellipse cx="350.257" cy="344.955" rx="350.257" ry="344.955" transform="matrix(-1 0 0 1 783.852 -56.4199)" stroke="#D9CFDD" stroke-width="32.2933"/>
<ellipse cx="402" cy="396.5" rx="402" ry="396.5" transform="matrix(-1 0 0 1 821 -96)" stroke="#E5E1E5" stroke-width="32.2933"/>
</g>
</svg>
