<svg width="1440" height="495" viewBox="0 0 1440 495" fill="none" xmlns="http://www.w3.org/2000/svg">
<g clip-path="url(#clip0_18_159)">
<rect width="1440" height="495" fill="white"/>
<path d="M908.671 -5L304 495H1509V-5H908.671Z" fill="#36554D"/>
<rect x="392" y="87" width="863" height="103" fill="#D60505"/>
<rect x="311" y="274" width="855" height="103" fill="#D60505"/>
<path d="M336.249 -5L824 506H-148V-5H336.249Z" fill="#252525" stroke="white" stroke-width="10"/>
<path d="M516.007 15.8631H521.903V69H516.007V38.6798H506.896V69H501V15.8631H506.896V32.7842H516.007V15.8631ZM549.966 69L548.818 58.8167H538.328L537.103 69H531.208L537.256 15.8631H549.813L555.939 69H549.966ZM538.941 53.4571H548.205L544.53 21.7587H542.539L538.941 53.4571ZM578.579 62.1856C578.221 64.1253 577.379 65.7587 576.052 67.0858C574.776 68.3619 572.913 69 570.463 69H566.328V63.1044H570.463C571.126 63.1044 571.637 62.9513 571.994 62.645C572.351 62.3388 572.581 61.9814 572.683 61.5731L574.444 52.0789H569.161L560.892 15.8631H566.941L573.372 46.1833H575.44L580.952 15.8631H586.924L578.579 62.1856ZM614.452 15.8631V69H608.48V52.1555H602.507C601.385 52.1555 600.313 52.0023 599.292 51.6961C598.322 51.3898 597.454 50.9304 596.688 50.3179C595.974 49.6543 595.387 48.8121 594.927 47.7912C594.519 46.7193 594.315 45.4432 594.315 43.9629V15.8631H600.21V43.9629C600.21 44.8306 600.44 45.4432 600.9 45.8005C601.359 46.1067 601.895 46.2599 602.507 46.2599H608.48V15.8631H614.452ZM640.203 32.7842V15.8631H646.098V69H640.203V38.6798H631.091V69H625.196V15.8631H631.091V32.7842H640.203ZM668.562 15.4037C670.042 15.4037 671.293 15.6334 672.314 16.0928C673.386 16.5012 674.228 17.0882 674.84 17.8539C675.504 18.5685 675.989 19.4362 676.295 20.4571C676.601 21.4269 676.754 22.4733 676.754 23.5963V61.2668C676.754 62.3898 676.601 63.4617 676.295 64.4826C675.989 65.4524 675.504 66.3202 674.84 67.0858C674.228 67.8005 673.386 68.3875 672.314 68.8469C671.293 69.2552 670.042 69.4594 668.562 69.4594H664.044C662.564 69.4594 661.288 69.2552 660.216 68.8469C659.195 68.3875 658.353 67.8005 657.689 67.0858C657.077 66.3202 656.618 65.4524 656.311 64.4826C656.005 63.4617 655.852 62.3898 655.852 61.2668V23.5963C655.852 22.4733 656.005 21.4269 656.311 20.4571C656.618 19.4362 657.077 18.5685 657.689 17.8539C658.353 17.0882 659.195 16.5012 660.216 16.0928C661.288 15.6334 662.564 15.4037 664.044 15.4037H668.562ZM668.562 63.5638C669.379 63.5638 669.966 63.3341 670.323 62.8747C670.68 62.4153 670.859 61.8794 670.859 61.2668V23.5963C670.859 22.9838 670.68 22.4478 670.323 21.9884C669.966 21.529 669.379 21.2993 668.562 21.2993H664.044C663.177 21.2993 662.564 21.529 662.207 21.9884C661.901 22.4478 661.747 22.9838 661.747 23.5963V61.2668C661.747 61.8794 661.901 62.4153 662.207 62.8747C662.564 63.3341 663.177 63.5638 664.044 63.5638H668.562ZM700.051 38.1439H685.351V33.0905H700.051V38.1439Z" fill="#252525"/>
<path d="M610.879 118.889H621.828V161H610.879V136.193L598.782 161H587.833V129.608V118.889H598.782V143.696L610.879 118.889ZM627.462 118.889H658.624V134.202H647.675V129.608H638.411V150.281H647.675V145.687H658.624V161H627.462V118.889ZM663.726 118.889H694.888V134.202H683.94V129.608H674.675V150.281H683.94V145.687H694.888V161H663.726V118.889ZM704.814 118.889H730.157V161H719.208V129.608H713.849L709.638 161H697.31V150.281H700.909L704.814 118.889ZM735.806 118.889H765.054V128.842H746.755V134.968H755.866V144.921H746.755V151.046H765.054V161H735.806V129.608V118.889ZM774.501 118.889H800.227V150.281H804.438V167.278H793.489V161H777.411V167.278H766.462V150.281H770.29L774.501 118.889ZM780.32 150.281H789.278V129.608H783.306L780.32 150.281ZM807.437 118.889H838.829V161H807.437V118.889ZM818.386 129.608V150.281H827.88V129.608H818.386ZM844.524 118.889H875.916V135.733L870.786 139.944L875.916 144.155V161H844.524V129.608V118.889ZM865.197 128.077H855.243V135.733H862.287L865.197 132.671V128.077ZM855.243 144.155V151.812H865.197V147.218L862.287 144.155H855.243ZM883.915 118.889H906.425L911.631 161H900.912L900.07 151.889H890.27L889.427 161H878.708L883.915 118.889ZM891.341 141.169H898.998L897.926 129.608H892.413L891.341 141.169ZM910.116 118.889H941.278V129.608H931.171V161H920.222V129.608H910.116V118.889ZM944.493 118.889H973.741V128.842H955.442V134.968H964.554V144.921H955.442V151.046H973.741V161H944.493V129.608V118.889ZM983.188 118.889H1008.53V161H997.583V129.608H992.223L988.012 161H975.685V150.281H979.284L983.188 118.889ZM1014.18 161V129.608V118.889H1025.13V132.594H1045.34V161H1014.18ZM1025.13 151.046H1034.39V142.548H1025.13V151.046ZM1050.44 118.889H1081.61V134.202H1070.66V129.608H1061.39V150.281H1070.66V145.687H1081.61V161H1050.44V118.889ZM1097.66 145.151V161H1086.71V129.608V118.889H1097.66V134.432H1101.72L1108.3 118.889H1120.17L1110.21 139.255L1120.63 161H1108.76L1101.72 145.151H1097.66ZM1145.87 118.889H1156.82V161H1145.87V136.193L1133.77 161H1122.82V129.608V118.889H1133.77V143.696L1145.87 118.889ZM1185.5 118.889H1196.45V161H1185.5V136.193L1173.4 161H1162.45V129.608V118.889H1173.4V143.696L1185.5 118.889ZM1170.64 106.026H1188.26V114.065H1170.64V106.026Z" fill="white"/>
<path d="M700.624 259V225.234L691.896 234.039V259H686V205.863H691.896V226.919L700.624 217.807V205.863H706.52V259H700.624ZM732.261 222.784V205.863H738.157V259H732.261V228.68H723.15V259H717.255V205.863H723.15V222.784H732.261ZM763.29 236.26H769.185V251.267C769.185 252.39 769.032 253.462 768.726 254.483C768.42 255.452 767.935 256.32 767.271 257.086C766.659 257.8 765.817 258.387 764.745 258.847C763.724 259.255 762.473 259.459 760.993 259.459H756.552C755.072 259.459 753.796 259.255 752.724 258.847C751.703 258.387 750.861 257.8 750.197 257.086C749.585 256.32 749.125 255.452 748.819 254.483C748.513 253.462 748.359 252.39 748.359 251.267V213.596C748.359 212.473 748.513 211.427 748.819 210.457C749.125 209.436 749.585 208.568 750.197 207.854C750.861 207.088 751.703 206.501 752.724 206.093C753.796 205.633 755.072 205.404 756.552 205.404H760.993C762.473 205.404 763.724 205.633 764.745 206.093C765.817 206.501 766.659 207.088 767.271 207.854C767.935 208.568 768.42 209.436 768.726 210.457C769.032 211.427 769.185 212.473 769.185 213.596V223.856H763.29V213.596C763.29 212.984 763.111 212.448 762.754 211.988C762.397 211.529 761.81 211.299 760.993 211.299H756.552C755.735 211.299 755.148 211.529 754.791 211.988C754.434 212.448 754.255 212.984 754.255 213.596V251.267C754.255 251.879 754.434 252.415 754.791 252.875C755.148 253.334 755.735 253.564 756.552 253.564H760.993C761.81 253.564 762.397 253.334 762.754 252.875C763.111 252.415 763.29 251.879 763.29 251.267V236.26ZM776.904 205.863H802.248V211.759H792.524V259H786.628V211.759H776.904V205.863ZM825.119 259V225.234L816.39 234.039V259H810.495V205.863H816.39V226.919L825.119 217.807V205.863H831.014V259H825.119ZM838.74 205.863H864.084V211.759H854.36V259H848.464V211.759H838.74V205.863ZM888.672 252.186C888.314 254.125 887.472 255.759 886.145 257.086C884.869 258.362 883.006 259 880.556 259H876.421V253.104H880.556C881.219 253.104 881.73 252.951 882.087 252.645C882.444 252.339 882.674 251.981 882.776 251.573L884.537 242.079H879.254L870.985 205.863H877.034L883.465 236.183H885.532L891.045 205.863H897.017L888.672 252.186ZM903.567 205.863H928.911V211.759H919.187V259H913.291V211.759H903.567V205.863Z" fill="white"/>
<path d="M777.833 306.889H809.225V349H777.833V306.889ZM788.782 317.608V338.281H798.276V317.608H788.782ZM814.92 306.889H845.546V316.077H825.869V323.121H845.546V349H814.92V317.608V306.889ZM825.869 339.812H834.597V332.309H825.869V339.812ZM850.885 306.889H882.277V349H850.885V306.889ZM861.834 317.608V338.281H871.328V317.608H861.834ZM887.971 306.889H919.134V336.826H898.92V349H887.971V306.889ZM898.92 317.608V326.872H908.185V317.608H898.92ZM924.385 306.889H955.777V349H924.385V306.889ZM935.334 317.608V338.281H944.828V317.608H935.334ZM961.472 306.889H972.421V322.432H981.915V306.889H992.864V349H981.915V333.151H972.421V349H961.472V317.608V306.889ZM998.559 306.889H1009.51V322.432H1019V306.889H1029.95V349H1019V333.151H1009.51V349H998.559V317.608V306.889ZM1035.65 306.889H1067.04V349H1035.65V306.889ZM1046.59 317.608V338.281H1056.09V317.608H1046.59ZM1095.78 306.889H1106.73V349H1095.78V324.193L1083.68 349H1072.73V317.608V306.889H1083.68V331.696L1095.78 306.889ZM1080.92 294.026H1098.53V302.065H1080.92V294.026Z" fill="white"/>
<path d="M888.213 395.863V449H882.318V401.759H873.896V449H868V395.863H888.213ZM918.556 423.963C918.556 425.443 918.327 426.719 917.867 427.791C917.459 428.812 916.872 429.654 916.106 430.318C915.341 430.93 914.447 431.39 913.426 431.696C912.457 432.002 911.41 432.155 910.287 432.155H904.851V449H898.955V395.863H910.287C911.767 395.863 913.018 396.093 914.039 396.552C915.111 396.961 915.979 397.548 916.642 398.313C917.306 399.028 917.791 399.896 918.097 400.917C918.403 401.886 918.556 402.933 918.556 404.056V423.963ZM912.584 404.056C912.584 403.443 912.406 402.907 912.048 402.448C911.742 401.988 911.155 401.759 910.287 401.759H904.851V426.26H910.287C910.951 426.26 911.487 426.107 911.895 425.8C912.354 425.443 912.584 424.831 912.584 423.963V404.056ZM940.602 395.404C942.082 395.404 943.333 395.633 944.354 396.093C945.426 396.501 946.268 397.088 946.88 397.854C947.544 398.568 948.029 399.436 948.335 400.457C948.641 401.427 948.795 402.473 948.795 403.596V441.267C948.795 442.39 948.641 443.462 948.335 444.483C948.029 445.452 947.544 446.32 946.88 447.086C946.268 447.8 945.426 448.387 944.354 448.847C943.333 449.255 942.082 449.459 940.602 449.459H936.085C934.604 449.459 933.328 449.255 932.256 448.847C931.235 448.387 930.393 447.8 929.73 447.086C929.117 446.32 928.658 445.452 928.351 444.483C928.045 443.462 927.892 442.39 927.892 441.267V403.596C927.892 402.473 928.045 401.427 928.351 400.457C928.658 399.436 929.117 398.568 929.73 397.854C930.393 397.088 931.235 396.501 932.256 396.093C933.328 395.633 934.604 395.404 936.085 395.404H940.602ZM940.602 443.564C941.419 443.564 942.006 443.334 942.363 442.875C942.72 442.415 942.899 441.879 942.899 441.267V403.596C942.899 402.984 942.72 402.448 942.363 401.988C942.006 401.529 941.419 401.299 940.602 401.299H936.085C935.217 401.299 934.604 401.529 934.247 401.988C933.941 402.448 933.788 402.984 933.788 403.596V441.267C933.788 441.879 933.941 442.415 934.247 442.875C934.604 443.334 935.217 443.564 936.085 443.564H940.602ZM982.734 395.863H994.755V449H988.86V426.03L989.625 401.146H987.481L981.739 436.137H971.938L966.196 401.146H964.052L964.818 426.03V449H958.922V395.863H970.943L976.303 430.93H977.375L982.734 395.863ZM1016.99 412.708C1018.47 412.708 1019.72 412.937 1020.74 413.397C1021.81 413.805 1022.66 414.392 1023.27 415.158C1023.93 415.872 1024.42 416.74 1024.72 417.761C1025.03 418.731 1025.18 419.777 1025.18 420.9V440.807C1025.18 442.288 1024.95 443.564 1024.49 444.636C1024.08 445.657 1023.5 446.499 1022.73 447.162C1022.02 447.775 1021.15 448.234 1020.13 448.541C1019.16 448.847 1018.11 449 1016.99 449H1005.5V395.863H1011.4V412.708H1016.99ZM1019.29 420.9C1019.29 420.237 1019.11 419.701 1018.75 419.292C1018.44 418.833 1017.86 418.603 1016.99 418.603H1011.4V443.104H1016.99C1017.65 443.104 1018.19 442.951 1018.6 442.645C1019.06 442.288 1019.29 441.675 1019.29 440.807V420.9ZM1038.12 395.863V449H1032.23V395.863H1038.12ZM1076.9 443.104V395.863H1082.79V449H1048.87V395.863H1054.77V443.104H1062.88V395.863H1068.78V443.104H1076.9ZM1114.21 395.863V449H1108.32V401.759H1101.58L1099.82 441.65C1099.72 444.1 1099.18 445.937 1098.21 447.162C1097.29 448.387 1095.61 449 1093.16 449H1089.94V443.104H1092.39C1093.01 443.104 1093.39 443.028 1093.54 442.875C1093.75 442.671 1093.87 442.262 1093.92 441.65L1095.92 395.863H1114.21ZM1124.92 395.863H1142.6V401.759H1130.81V412.708H1139.62V418.68H1130.81V443.104H1142.6V449H1124.92V395.863ZM1166.99 412.784V395.863H1172.88V449H1166.99V418.68H1157.88V449H1151.98V395.863H1157.88V412.784H1166.99ZM1198.62 412.784V395.863H1204.51V449H1198.62V418.68H1189.51V449H1183.61V395.863H1189.51V412.784H1198.62ZM1226.98 395.404C1228.46 395.404 1229.71 395.633 1230.73 396.093C1231.8 396.501 1232.64 397.088 1233.26 397.854C1233.92 398.568 1234.4 399.436 1234.71 400.457C1235.02 401.427 1235.17 402.473 1235.17 403.596V441.267C1235.17 442.39 1235.02 443.462 1234.71 444.483C1234.4 445.452 1233.92 446.32 1233.26 447.086C1232.64 447.8 1231.8 448.387 1230.73 448.847C1229.71 449.255 1228.46 449.459 1226.98 449.459H1222.46C1220.98 449.459 1219.7 449.255 1218.63 448.847C1217.61 448.387 1216.77 447.8 1216.1 447.086C1215.49 446.32 1215.03 445.452 1214.73 444.483C1214.42 443.462 1214.27 442.39 1214.27 441.267V403.596C1214.27 402.473 1214.42 401.427 1214.73 400.457C1215.03 399.436 1215.49 398.568 1216.1 397.854C1216.77 397.088 1217.61 396.501 1218.63 396.093C1219.7 395.633 1220.98 395.404 1222.46 395.404H1226.98ZM1226.98 443.564C1227.79 443.564 1228.38 443.334 1228.74 442.875C1229.1 442.415 1229.27 441.879 1229.27 441.267V403.596C1229.27 402.984 1229.1 402.448 1228.74 401.988C1228.38 401.529 1227.79 401.299 1226.98 401.299H1222.46C1221.59 401.299 1220.98 401.529 1220.62 401.988C1220.32 402.448 1220.16 402.984 1220.16 403.596V441.267C1220.16 441.879 1220.32 442.415 1220.62 442.875C1220.98 443.334 1221.59 443.564 1222.46 443.564H1226.98ZM1260.08 426.26H1265.97V441.267C1265.97 442.39 1265.82 443.462 1265.51 444.483C1265.21 445.452 1264.72 446.32 1264.06 447.086C1263.45 447.8 1262.6 448.387 1261.53 448.847C1260.51 449.255 1259.26 449.459 1257.78 449.459H1253.34C1251.86 449.459 1250.58 449.255 1249.51 448.847C1248.49 448.387 1247.65 447.8 1246.99 447.086C1246.37 446.32 1245.91 445.452 1245.61 444.483C1245.3 443.462 1245.15 442.39 1245.15 441.267V403.596C1245.15 402.473 1245.3 401.427 1245.61 400.457C1245.91 399.436 1246.37 398.568 1246.99 397.854C1247.65 397.088 1248.49 396.501 1249.51 396.093C1250.58 395.633 1251.86 395.404 1253.34 395.404H1257.78C1259.26 395.404 1260.51 395.633 1261.53 396.093C1262.6 396.501 1263.45 397.088 1264.06 397.854C1264.72 398.568 1265.21 399.436 1265.51 400.457C1265.82 401.427 1265.97 402.473 1265.97 403.596V413.856H1260.08V403.596C1260.08 402.984 1259.9 402.448 1259.54 401.988C1259.18 401.529 1258.6 401.299 1257.78 401.299H1253.34C1252.52 401.299 1251.94 401.529 1251.58 401.988C1251.22 402.448 1251.04 402.984 1251.04 403.596V441.267C1251.04 441.879 1251.22 442.415 1251.58 442.875C1251.94 443.334 1252.52 443.564 1253.34 443.564H1257.78C1258.6 443.564 1259.18 443.334 1259.54 442.875C1259.9 442.415 1260.08 441.879 1260.08 441.267V426.26ZM1273.69 395.863H1299.04V401.759H1289.31V449H1283.42V401.759H1273.69V395.863ZM1321.91 449V415.234L1313.18 424.039V449H1307.28V395.863H1313.18V416.919L1321.91 407.807V395.863H1327.8V449H1321.91Z" fill="white"/>
<g clip-path="url(#clip1_18_159)">
<path d="M107.431 387.816H112.867V376.919H118.303V404.163H112.867V393.266H107.431V404.163H102V376.919H107.431V387.816Z" fill="white"/>
<path d="M129.201 391.498L134.637 379.043V376.887H140.073V404.163H134.637L134.614 392.663L129.616 404.163H123.77V376.887H129.201V391.498Z" fill="white"/>
<path d="M150.972 391.498L156.407 379.043V376.887H161.839V404.163H156.407L156.385 392.663L151.386 404.163H145.541V376.887H150.976V391.498H150.972Z" fill="white"/>
<path d="M178.173 404.163H172.737C171.986 404.163 171.279 404.021 170.619 403.738C169.958 403.455 169.384 403.066 168.892 402.568C168.4 402.07 168.008 401.495 167.725 400.837C167.443 400.179 167.302 399.471 167.302 398.712V382.333C167.302 381.579 167.443 380.871 167.725 380.208C168.008 379.55 168.395 378.97 168.892 378.477C169.384 377.983 169.963 377.59 170.619 377.312C171.275 377.028 171.981 376.887 172.737 376.887H178.173C178.898 376.887 179.595 377.028 180.26 377.312C180.925 377.595 181.504 377.983 181.996 378.477C182.488 378.97 182.88 379.55 183.172 380.208C183.463 380.871 183.609 381.579 183.609 382.333V398.712C183.609 399.466 183.463 400.174 183.172 400.837C182.88 401.499 182.488 402.075 181.996 402.568C181.504 403.062 180.925 403.455 180.26 403.738C179.595 404.021 178.898 404.163 178.173 404.163ZM178.173 382.333H172.737V398.712H178.173V382.333Z" fill="white"/>
<path d="M199.943 404.163H189.077V376.887H204.035V382.337H194.508V385.097H199.943C200.668 385.097 201.365 385.243 202.03 385.54C202.696 385.833 203.274 386.23 203.766 386.724C204.258 387.217 204.65 387.802 204.942 388.473C205.233 389.145 205.379 389.844 205.379 390.575V398.731C205.379 399.484 205.233 400.188 204.942 400.851C204.65 401.508 204.258 402.089 203.766 402.582C203.274 403.076 202.696 403.464 202.03 403.747C201.365 404.03 200.668 404.172 199.943 404.172V404.163ZM199.943 398.712V390.539H194.508V398.712H199.943Z" fill="white"/>
<path d="M221.714 404.163H216.278C215.526 404.163 214.82 404.021 214.159 403.738C213.499 403.455 212.925 403.066 212.432 402.568C211.94 402.07 211.549 401.495 211.266 400.837C210.984 400.179 210.842 399.471 210.842 398.712V382.333C210.842 381.579 210.984 380.871 211.266 380.208C211.549 379.55 211.936 378.97 212.432 378.477C212.925 377.983 213.503 377.59 214.159 377.312C214.815 377.028 215.522 376.887 216.278 376.887H221.714C222.438 376.887 223.135 377.028 223.801 377.312C224.466 377.595 225.044 377.983 225.537 378.477C226.029 378.97 226.42 379.55 226.712 380.208C227.004 380.871 227.149 381.579 227.149 382.333V398.712C227.149 399.466 227.004 400.174 226.712 400.837C226.42 401.499 226.029 402.075 225.537 402.568C225.044 403.062 224.466 403.455 223.801 403.738C223.135 404.021 222.438 404.163 221.714 404.163ZM221.714 382.333H216.278V398.712H221.714V382.333Z" fill="white"/>
<path d="M243.479 395.989H238.048V404.163H232.613V376.887H243.479C244.204 376.887 244.901 377.028 245.566 377.312C246.232 377.595 246.81 377.983 247.302 378.477C247.794 378.97 248.186 379.55 248.478 380.208C248.769 380.871 248.915 381.579 248.915 382.333V390.539C248.915 391.292 248.769 392.001 248.478 392.663C248.186 393.326 247.794 393.901 247.302 394.395C246.81 394.888 246.232 395.281 245.566 395.564C244.901 395.848 244.204 395.989 243.479 395.989ZM243.479 382.333H238.048V390.539H243.479V382.333Z" fill="white"/>
<path d="M265.25 404.163H259.819C259.062 404.163 258.361 404.021 257.7 403.738C257.039 403.455 256.465 403.066 255.973 402.568C255.481 402.075 255.089 401.495 254.811 400.837C254.529 400.179 254.387 399.471 254.387 398.712V382.333C254.387 381.579 254.529 380.871 254.811 380.208C255.094 379.55 255.481 378.97 255.973 378.477C256.465 377.983 257.044 377.59 257.7 377.312C258.361 377.028 259.062 376.887 259.819 376.887H265.25C265.974 376.887 266.671 377.028 267.337 377.312C268.002 377.595 268.58 377.983 269.073 378.477C269.565 378.97 269.957 379.55 270.248 380.208C270.54 380.871 270.686 381.579 270.686 382.333V398.712C270.686 399.466 270.54 400.174 270.248 400.837C269.957 401.499 269.565 402.075 269.073 402.568C268.58 403.062 268.002 403.455 267.337 403.738C266.671 404.021 265.974 404.163 265.25 404.163ZM265.25 382.333H259.819V398.712H265.25V382.333Z" fill="white"/>
<path d="M281.589 387.816H287.02V376.919H292.456V404.163H287.02V393.266H281.589V404.163H276.153V376.919H281.589V387.816Z" fill="white"/>
<path d="M297.923 376.887H314.226V404.163H308.79V382.333H303.359V404.163H297.923V376.887Z" fill="white"/>
<path d="M330.556 395.989H325.125V404.163H319.689V376.887H330.556C331.281 376.887 331.978 377.028 332.643 377.312C333.308 377.595 333.887 377.983 334.379 378.477C334.871 378.97 335.263 379.55 335.554 380.208C335.846 380.871 335.992 381.579 335.992 382.333V390.539C335.992 391.292 335.846 392.001 335.554 392.663C335.263 393.326 334.871 393.901 334.379 394.395C333.887 394.888 333.308 395.281 332.643 395.564C331.978 395.848 331.281 395.989 330.556 395.989ZM330.556 382.333H325.125V390.539H330.556V382.333Z" fill="white"/>
<path d="M352.326 404.163H346.895C346.139 404.163 345.437 404.021 344.776 403.738C344.116 403.455 343.542 403.066 343.05 402.568C342.558 402.075 342.166 401.495 341.888 400.837C341.605 400.179 341.464 399.471 341.464 398.712V382.333C341.464 381.579 341.605 380.871 341.888 380.208C342.17 379.55 342.558 378.97 343.05 378.477C343.542 377.983 344.12 377.59 344.776 377.312C345.437 377.028 346.139 376.887 346.895 376.887H352.326C353.051 376.887 353.748 377.028 354.413 377.312C355.078 377.595 355.657 377.983 356.149 378.477C356.641 378.97 357.033 379.55 357.325 380.208C357.616 380.871 357.762 381.579 357.762 382.333V398.712C357.762 399.466 357.616 400.174 357.325 400.837C357.033 401.499 356.641 402.075 356.149 402.568C355.657 403.062 355.078 403.455 354.413 403.738C353.748 404.021 353.051 404.163 352.326 404.163ZM352.326 382.333H346.895V398.712H352.326V382.333Z" fill="white"/>
<path d="M379.141 376.887H384.995V404.163H379.564V394.577L376.671 404.163H371.554L368.661 394.577V404.163H363.225V376.887H369.048L374.092 393.764L379.141 376.887Z" fill="white"/>
<path d="M242.851 183.035C238.486 184.182 224.074 188.025 224.015 188.061C223.996 188.098 225.71 188.614 227.828 189.226C229.965 189.838 231.719 190.355 231.738 190.355C231.774 190.373 231.3 196.911 231.164 198.442L231.068 199.264H232.954L232.822 195.746C232.69 192.324 232.708 192.21 233.109 191.538C233.355 191.154 233.642 190.848 233.756 190.848C234.253 190.848 235.966 191.803 236.235 192.223C236.385 192.47 236.577 193.028 236.654 193.466L236.786 194.289H252V193.466C252 192.415 252.533 191.575 253.449 191.173C253.85 190.999 255.258 190.597 256.574 190.254C259.09 189.642 264.22 188.226 264.297 188.134C264.334 188.098 261.094 187.179 257.089 186.087C253.084 185 248.815 183.83 247.612 183.488C244.582 182.629 244.445 182.611 242.846 183.031L242.851 183.035Z" fill="white"/>
<path d="M233.51 205.327C231.373 210.472 229.355 215.305 229.013 216.11L228.402 217.562L229.815 218.577C232.599 220.582 235.743 224.064 237.916 227.564C239.288 229.78 240.928 233.261 242.185 236.569L243.233 239.324L243.174 228.235L243.138 217.147L242.24 215.826C241.438 214.698 241.324 214.392 241.324 213.569C241.324 212.747 241.402 212.537 241.99 211.966C243.552 210.494 246.414 211.047 247.043 212.939C247.33 213.798 247.079 214.542 246.072 216.036L245.329 217.147L245.348 228.235V239.324L246.168 237.03C249.198 228.523 253.239 222.616 258.998 218.316L260.734 217.014L259.436 215.063C256.233 210.284 253.79 204.454 252.556 198.602C252.346 197.665 252.155 196.692 252.1 196.441L252.004 196.02H237.401L233.51 205.332V205.327Z" fill="white"/>
<path d="M204.09 225.206C194.881 242.965 190.803 250.897 190.803 251.052C190.803 251.13 192.061 251.532 193.624 251.93C195.168 252.332 196.503 252.715 196.581 252.788C196.658 252.862 194.749 256.594 192.312 261.086C189.892 265.577 187.928 269.287 187.965 269.305C188.001 269.342 189.204 269.246 190.617 269.077C194.544 268.62 205.849 268.638 209.393 269.095C221.764 270.721 231.906 274.81 241.479 282.075C242.928 283.162 244.131 283.948 244.281 283.889C244.414 283.829 246.072 282.742 247.963 281.499C257.741 274.925 263.919 271.978 270.594 270.68C275.743 269.684 280.91 269.323 292.993 269.131C296.921 269.054 300.161 268.981 300.202 268.958C300.22 268.921 298.315 265.307 295.951 260.907C293.568 256.512 291.699 252.857 291.795 252.784C291.873 252.706 293.208 252.327 294.77 251.925C296.315 251.523 297.573 251.121 297.573 251.048C297.573 250.856 281.388 219.678 281.179 219.449C281.101 219.372 279.88 219.774 278.472 220.386C266.252 225.604 253.649 235.564 248.637 243.957C248.045 244.93 247.608 245.752 247.644 245.794C247.68 245.835 248.751 245.008 250.009 243.957C258.493 236.902 261.81 234.417 266.785 231.338C268.881 230.017 278.317 224.493 278.436 224.493C278.532 224.493 290.178 247.836 290.105 247.913C290.068 247.95 288.123 248.622 285.758 249.403C280.441 251.162 277.484 252.345 273.082 254.488C266.448 257.718 260.538 261.657 255.964 265.938C253.827 267.925 253.544 268.135 254.305 267.121C256.82 263.795 261.072 259.473 264.544 256.704C268.968 253.168 274.932 249.535 280.559 246.954C282.104 246.246 283.398 245.634 283.439 245.615C283.534 245.538 276.326 234.7 275.529 233.723C274.517 232.443 273.852 232.366 271.506 233.188C265.386 235.331 260.867 238.159 256.693 242.477C250.861 248.535 247.143 256.375 245.065 266.984C244.819 268.227 244.568 269.296 244.532 269.337C244.473 269.396 243.598 266.911 242.586 263.831C240.545 257.677 239.174 254.027 237.88 251.253C234.581 244.199 229.127 238.753 221.809 235.194C217.864 233.261 215.116 232.462 213.763 232.822C213.307 232.937 211.38 235.651 207.375 241.809L204.992 245.46L207.776 247.045C223.258 255.877 231.569 262.415 235.078 268.551C235.419 269.145 234.964 268.78 233.036 266.906C224.917 259.03 215.248 253.506 201.98 249.165C199.998 248.498 198.34 247.941 198.299 247.904C198.203 247.827 209.68 224.868 209.813 224.868C209.872 224.868 211.567 225.69 213.567 226.664C221.65 230.657 229.655 236.185 238.349 243.756C239.57 244.825 240.582 245.666 240.582 245.611C240.582 245.382 239.133 243.24 237.57 241.138C235.738 238.671 231.984 234.714 229.428 232.535C224.47 228.29 219.171 224.909 211.471 221.122C209.261 220.034 207.411 219.134 207.352 219.134C207.316 219.134 205.844 221.866 204.113 225.192L204.09 225.206ZM205.689 255.009C209.922 256.384 212.874 257.627 217.012 259.751C220.083 261.319 224.981 264.224 226.256 265.239L226.735 265.6L226.256 265.426C225.988 265.33 223.281 264.22 220.251 262.959C209.84 258.6 206.792 257.531 205.648 257.814C204.864 258.006 204.163 258.673 202.978 260.318C202.349 261.159 201.871 261.849 201.912 261.885C201.93 261.903 202.942 262.077 204.144 262.246C217.964 264.252 228.548 268.46 236.727 275.226C239.474 277.502 239.433 277.538 236.536 275.496C224.944 267.313 211.867 263.512 198.54 264.425C196.786 264.558 195.282 264.617 195.241 264.558C195.182 264.498 195.852 263.219 196.708 261.73C197.565 260.217 198.959 257.81 199.798 256.357L201.324 253.721L201.935 253.853C202.258 253.912 203.958 254.447 205.689 255V255.009ZM287.38 254.529C287.626 254.758 288.182 255.639 288.619 256.498C289.057 257.339 290.278 259.5 291.308 261.277C292.337 263.036 293.157 264.526 293.116 264.585C293.08 264.622 291.8 264.549 290.296 264.435C283.776 263.918 276.171 264.722 269.688 266.65C263.623 268.446 256.761 271.909 250.66 276.227C249.553 277.013 249.498 277.031 250.182 276.4C251.763 274.966 255.499 272.252 257.695 270.954C264.616 266.865 272.335 264.206 281.83 262.657C283.507 262.388 285.207 262.104 285.603 262.008L286.327 261.876L285.357 260.309C284.842 259.468 284.136 258.532 283.794 258.244C282.477 257.133 280.495 257.746 267.569 263.292C261.432 265.929 260.762 266.198 260.762 266.102C260.762 266.066 261.391 265.622 262.151 265.129C268.252 261.04 276.24 257.079 283.238 254.689C285.699 253.848 286.615 253.812 287.375 254.538L287.38 254.529Z" fill="white"/>
<path d="M137.918 191.177C137.858 191.369 137.517 192.9 137.157 194.581C134.259 208.018 133.648 222.241 135.403 235.509C137.635 252.313 143.276 268.716 152.352 284.908C164.764 306.989 182.588 323.962 206.154 336.065C212.656 339.41 219.973 342.585 226.612 344.956C228.289 345.55 228.863 345.834 228.653 345.952C228.48 346.048 226.653 346.181 224.575 346.24C220.456 346.391 220.324 346.432 219.868 347.561C219.718 347.885 219.545 348.785 219.486 349.53L219.354 350.887L219.809 350.791C220.055 350.731 221.468 350.562 222.935 350.389C231.287 349.512 236.832 349.26 246.195 349.393C253.877 349.507 256.319 349.621 262.402 350.215C264.079 350.366 266.024 350.558 266.731 350.617L268.006 350.731L267.665 349.411C267.186 347.634 266.999 347.213 266.503 346.752C266.12 346.409 265.742 346.368 261.851 346.272C257.809 346.176 257.636 346.158 257.581 345.793C257.545 345.45 257.85 345.295 260.06 344.568C282.71 337.153 302.097 325.05 316.91 309.086C331.704 293.141 343.009 272.476 348.385 251.546C352.714 234.783 353.361 217.654 350.367 199.643C349.834 196.431 349.624 195.458 349.624 196.221C349.624 196.372 349.798 198.035 350.007 199.931C351 208.708 351.228 216.274 350.768 223.73C349.014 251.486 339.195 276.3 321.065 298.934C314.622 306.962 307.246 314.244 299.864 319.869C286.177 330.327 269.036 338.144 248.847 343.152C246.314 343.782 245.739 343.86 243.53 343.842C240.823 343.842 239.602 343.631 233.141 341.95C223.477 339.465 215.449 336.445 206.737 332.026C190.302 323.711 177.207 312.833 164.736 297.175C145.194 272.608 135.758 245.465 136.35 215.506C136.464 210.019 136.656 207.191 137.626 196.678C137.913 193.526 138.123 190.926 138.105 190.885C138.068 190.848 137.991 190.981 137.931 191.173L137.918 191.177Z" fill="white"/>
<path d="M145.623 195.614C143.372 197.427 140.647 200.333 139.731 201.882C138.492 204.025 138.109 205.341 138.109 207.771C138.109 209.416 138.205 210.22 138.547 211.463C138.793 212.322 139.08 213.09 139.175 213.144C139.462 213.336 141.349 211.92 142.415 210.755C143.577 209.453 144.894 206.798 145.427 204.674C145.636 203.815 146.115 201.311 146.475 199.132C146.835 196.952 147.199 194.965 147.258 194.713C147.336 194.485 147.354 194.293 147.318 194.293C147.281 194.293 146.516 194.887 145.623 195.614Z" fill="white"/>
<path d="M339.696 194.618C339.696 194.695 339.774 195.074 339.887 195.44C339.983 195.801 340.384 197.962 340.744 200.219C341.737 206.127 342.594 208.457 344.653 210.791C345.3 211.536 347.515 213.217 347.838 213.217C348.144 213.217 348.695 210.426 348.791 208.42C349.059 203.605 346.904 199.739 341.815 195.897C340.288 194.75 339.701 194.385 339.701 194.618H339.696Z" fill="white"/>
<path d="M120.512 198.25C120.59 198.538 120.895 200.58 121.219 202.8C122.212 209.626 123.123 212.395 125.183 214.881C126.176 216.087 127.889 217.421 129.379 218.17L130.181 218.572V217.96C130.163 217.617 130.085 216.717 129.99 215.991C129.876 215.246 129.721 212.971 129.607 210.924C129.416 206.775 129.17 205.592 128.14 203.623C126.978 201.407 124.404 199.282 121.428 198.117L120.417 197.715L120.512 198.25Z" fill="white"/>
<path d="M364.004 198.921C359.316 201.558 358.455 202.686 357.903 206.99C357.675 208.749 356.664 218.367 356.664 218.805C356.664 218.997 358.723 218.252 359.621 217.718C362.346 216.132 364.423 212.098 365.321 206.725C365.872 203.303 366.219 197.912 365.872 197.948C365.777 197.948 364.957 198.387 364.004 198.921Z" fill="white"/>
<path d="M148.671 209.818C142.037 213.985 138.396 220.372 139.102 226.7C139.312 228.573 140.073 231.173 140.875 232.781L141.235 233.49L141.959 233.129C144.283 231.945 146.784 229.227 147.545 227.107C148.024 225.69 148.725 221.332 149.432 215.141C149.737 212.349 150.042 209.846 150.097 209.539C150.133 209.252 150.115 209.023 150.038 209.041C149.96 209.041 149.35 209.402 148.666 209.827L148.671 209.818Z" fill="white"/>
<path d="M337.295 210.773C337.354 211.44 337.504 213.775 337.6 215.972C337.714 218.17 337.887 220.578 337.983 221.327C338.648 226.047 340.425 229.547 343.3 231.84C344.749 232.987 345.51 233.485 345.797 233.485C346.121 233.485 347.096 231.173 347.551 229.318C348.144 226.869 348.103 223.543 347.437 220.966C346.048 215.557 342.671 211.426 338.457 209.974C337.846 209.763 337.313 209.59 337.254 209.59C337.217 209.59 337.217 210.124 337.29 210.773H337.295Z" fill="white"/>
<path d="M368.962 216.05C368.752 216.11 367.572 216.452 366.351 216.854C364.56 217.43 363.74 217.809 362.232 218.823C359.393 220.733 358.477 221.807 357.37 224.694C356.418 227.121 352.987 238.077 353.119 238.227C353.269 238.378 355.466 237.825 356.874 237.291C360.172 236.012 362.268 233.887 363.831 230.141C365.298 226.682 369.435 216.205 369.399 216.091C369.363 216.032 369.171 216.014 368.962 216.055V216.05Z" fill="white"/>
<path d="M117.92 216.375C117.747 216.507 117.596 216.699 117.596 216.795C117.596 217.156 122.554 228.149 124.098 231.21C125.319 233.636 125.852 234.499 126.673 235.322C128.313 236.948 130.714 237.958 132.714 237.844L133.744 237.784L132.427 233.293C129.47 223.086 128.996 221.958 126.996 220.025C125.775 218.842 124.709 218.303 121.237 217.138C118.758 216.315 118.189 216.183 117.92 216.375Z" fill="white"/>
<path d="M151.473 227.559C148.539 229.912 145.809 233.352 144.629 236.162C142.953 240.178 142.761 243.998 144.019 248.357C144.474 249.906 145.85 253.076 146.497 254.091L146.784 254.529L147.682 253.821C150.065 251.93 151.742 249.883 152.484 248.009C152.712 247.415 152.963 246.196 153.059 245.067C153.305 242.467 153.305 226.408 153.077 226.408C152.963 226.408 152.257 226.924 151.477 227.555L151.473 227.559Z" fill="white"/>
<path d="M333.404 234.38C333.404 238.68 333.481 242.888 333.595 243.747C333.805 245.679 334.547 247.932 335.463 249.426C336.265 250.764 338.325 252.999 339.582 253.899L340.457 254.529L340.935 253.46C341.582 251.971 342.653 248.603 343.072 246.675C343.341 245.414 343.414 244.286 343.396 241.704C343.396 238.625 343.337 238.223 342.863 236.637C342.006 233.791 341.013 232.105 339.031 230.136C337.354 228.455 334.588 226.6 333.75 226.6C333.427 226.6 333.408 227.098 333.408 234.38H333.404Z" fill="white"/>
<path d="M118.357 234.92C118.357 235.436 125.26 251.052 126.171 252.601C128.495 256.558 132.291 259.349 136.924 260.533C139.212 261.108 139.613 261.145 139.421 260.665C139.344 260.492 138.487 258.066 137.517 255.274C134.619 246.995 133.648 244.414 132.942 243.08C130.96 239.274 127.415 237.058 120.645 235.395C119.747 235.166 118.872 234.956 118.699 234.897C118.508 234.837 118.357 234.86 118.357 234.915V234.92Z" fill="white"/>
<path d="M365.435 235.605C359.831 237.268 356.855 239.086 354.664 242.18C353.424 243.902 353.137 244.647 350.203 253.191C347.173 262.059 347.191 261.332 350.071 260.647C353.424 259.843 355.675 258.564 358.022 256.096C360.824 253.154 362.56 249.979 365.686 242.084C366.793 239.292 367.918 236.519 368.182 235.911C368.793 234.572 368.889 234.572 365.435 235.605Z" fill="white"/>
<path d="M327.608 249.005C324.692 261.926 324.35 264.297 324.902 267.473C325.321 269.862 326.123 271.868 327.476 273.933C328.638 275.674 330.984 278.388 331.194 278.214C331.253 278.155 332.187 275.788 333.272 272.955C336.894 263.548 337.637 260.72 337.236 257.604C336.876 254.735 336.11 252.976 333.919 249.919C332.087 247.379 329.021 243.23 328.961 243.23C328.925 243.23 328.314 245.83 327.608 249.005Z" fill="white"/>
<path d="M156.849 244.935C152.503 249.81 150.006 255.717 150.006 261.067C150.006 266.038 152.407 272.348 156.335 277.739C156.64 278.159 159.592 274.258 160.7 271.987C161.88 269.538 162.262 267.838 162.262 264.933C162.262 262.58 162.203 262.104 161.005 256.521C160.317 253.254 159.442 249.083 159.041 247.251C158.658 245.414 158.28 243.829 158.203 243.751C158.125 243.655 157.515 244.19 156.849 244.935Z" fill="white"/>
<path d="M121.068 259.656C121.105 259.733 122.098 261.415 123.301 263.402C126.085 268.007 127.666 270.397 129.63 272.882C131.402 275.121 138.401 282.23 139.736 283.149C141.663 284.451 144.233 285.022 146.848 284.734C147.668 284.638 148.375 284.524 148.429 284.465C148.675 284.195 143.682 273.892 141.759 270.721C137.658 263.973 134.819 261.68 129.329 260.647C126.928 260.19 121 259.482 121.073 259.651L121.068 259.656Z" fill="white"/>
<path d="M362.268 259.962C359.029 260.268 357.885 260.478 355.52 261.241C351.725 262.465 350.545 263.361 348.504 266.518C345.205 271.621 338.475 283.779 338.648 284.337C338.762 284.679 338.935 284.72 340.575 284.72C344.808 284.72 348.904 283.117 351.88 280.266C353.557 278.639 356.568 274.436 362.154 265.833L366.178 259.678L365.567 259.697C365.225 259.715 363.758 259.829 362.268 259.966V259.962Z" fill="white"/>
<path d="M320.86 266.002C320.65 266.459 319.279 269.364 317.789 272.462C311.059 286.438 310.185 288.979 310.718 292.917C310.832 293.817 311.155 295.229 311.424 296.069C311.921 297.714 313.729 301.538 313.998 301.538C314.34 301.538 319.716 295.955 320.878 294.37C322.459 292.268 324.081 289.015 324.747 286.722C325.148 285.346 325.262 284.428 325.339 282.212C325.453 278.964 325.262 277.337 324.327 273.668C323.753 271.375 321.753 265.737 321.393 265.335C321.298 265.257 321.07 265.545 320.86 266.002Z" fill="white"/>
<path d="M164.973 266.975C163.351 270.548 162.267 273.687 161.597 276.78C161.465 277.428 161.351 279.187 161.351 280.892C161.351 283.528 161.41 284.067 161.884 285.748C162.836 289.189 164.572 292.323 167.434 295.786C169.092 297.774 172.751 301.538 173.038 301.538C173.325 301.538 175.098 297.792 175.631 296.069C176.355 293.716 176.583 291.537 176.337 289.591C176.068 287.622 175.385 285.634 173.571 281.54C171.894 277.698 165.967 265.426 165.812 265.408C165.753 265.408 165.374 266.116 164.973 266.975Z" fill="white"/>
<path d="M303.951 286.397C299.641 291.903 296.994 295.439 295.431 297.81C293.581 300.602 290.588 306.605 289.617 309.47C288.911 311.517 288.893 311.649 288.911 314.249C288.929 316.602 288.988 317.137 289.444 318.644C290.055 320.691 291.103 323.177 291.39 323.273C291.503 323.309 293.905 320.942 296.748 318.014C305.519 308.99 306.681 307.652 307.765 305.262C309.137 302.32 309.364 299.487 308.64 294.863C308.066 291.231 306.735 283.907 306.562 283.546C306.467 283.318 305.801 284.044 303.951 286.393V286.397Z" fill="white"/>
<path d="M179.212 290.011C178.547 293.356 177.973 296.819 177.895 297.714C177.535 302.973 179.973 307.921 185.901 314.098C189.122 317.424 195.797 322.989 196.157 322.624C196.481 322.299 197.283 319.869 197.588 318.247C197.989 316.182 198.043 311.768 197.684 309.95C197.264 307.77 196.33 305.134 195.223 303.01C194.079 300.771 192.289 298.326 185.577 289.801C181.859 285.1 180.889 283.953 180.506 283.953C180.447 283.953 179.859 286.685 179.207 290.011H179.212Z" fill="white"/>
<path d="M135.038 287.507C134.314 287.64 132.523 287.891 131.056 288.042C129.607 288.193 128.386 288.366 128.349 288.403C128.122 288.631 139.426 298.916 144.383 302.968C148.443 306.313 149.969 307.213 152.771 307.958C155.328 308.625 160.417 308.3 163.028 307.291L163.579 307.08L160.832 304.06C149.222 291.254 148.671 290.696 146.456 289.381C143.75 287.795 141.576 287.201 138.469 287.22C137.325 287.238 135.781 287.352 135.038 287.507Z" fill="white"/>
<path d="M346.371 287.393C344.275 287.699 342.12 288.462 340.612 289.477C337.523 291.56 333.941 294.923 330.337 299.149C326.774 303.316 323.685 307.291 323.913 307.368C324.045 307.405 325.152 307.638 326.355 307.866C328.948 308.364 332.743 308.46 334.361 308.058C337.181 307.368 340.216 305.212 349.041 297.6C357.466 290.317 358.669 289.266 358.728 289.015C358.842 288.499 357.853 288.193 354.573 287.791C350.454 287.293 347.993 287.178 346.376 287.389L346.371 287.393Z" fill="white"/>
<path d="M154.963 311.174C154.275 311.307 151.418 311.901 148.575 312.513C143.522 313.582 142.953 313.792 142.953 314.464C142.953 314.806 158.471 325.456 164.017 328.915C168.536 331.743 170.118 332.451 172.979 332.908C175.02 333.233 178.242 333.023 180.606 332.429C182.666 331.894 185.24 331.012 185.372 330.784C185.486 330.592 177.002 322.505 174.027 319.946C168.459 315.167 163.848 312.202 160.7 311.384C159.041 310.964 156.485 310.868 154.963 311.174Z" fill="white"/>
<path d="M327.781 311.119C325.266 311.48 322.56 312.591 320.728 314.043C317.429 316.607 303.61 328.609 302.635 329.738C301.55 331.017 301.473 330.921 304.047 331.743C309.178 333.388 313.369 333.502 317.374 332.086C319.224 331.437 320.805 330.537 325.59 327.385C329.175 325.032 344.845 314.098 344.767 314.002C344.731 313.984 343.127 313.6 341.204 313.18C339.277 312.76 336.707 312.166 335.504 311.859C333.313 311.307 330.583 310.886 329.499 310.923C329.194 310.941 328.415 311.019 327.781 311.115V311.119Z" fill="white"/>
<path d="M241.466 98.9179C240.039 103.295 238.426 108.325 237.898 110.125C236.877 113.502 236.613 114.155 236.043 114.808C235.164 115.809 235.392 115.791 222.069 115.768C211.462 115.727 209.648 115.768 209.913 116.015C210.3 116.385 221.235 124.362 225.723 127.569C227.642 128.917 229.455 130.311 229.76 130.64C230.863 131.786 230.799 132.092 228.106 140.294C224.68 150.706 222.926 156.266 223.008 156.349C223.049 156.39 227.801 152.972 233.574 148.783C239.347 144.57 244.181 141.153 244.281 141.194C244.404 141.235 249.198 144.693 254.93 148.865C260.68 153.036 265.414 156.454 265.455 156.454C265.496 156.454 263.947 151.506 261.965 145.447C258.046 133.34 257.823 132.357 258.638 131.005C259.149 130.164 260.147 129.411 270.59 121.799C274.855 118.669 278.381 116.051 278.404 115.951C278.445 115.827 273.588 115.745 265.432 115.745H252.396L250.114 108.727C245.689 95.1668 244.281 90.9954 244.158 90.9954C244.099 90.9954 242.892 94.5546 241.466 98.9133V98.9179Z" fill="#D60505"/>
<path d="M174.291 124.239C174.209 124.444 173.211 127.428 172.086 130.868C170.291 136.268 169.944 137.146 169.452 137.516C168.901 137.927 168.596 137.945 161.843 138.005L154.804 138.064L157.72 140.234C159.333 141.44 161.82 143.241 163.247 144.241C165.88 146.082 166.45 146.736 166.45 147.782C166.45 148.07 165.534 151.136 164.408 154.571C163.288 158.007 162.39 160.89 162.408 160.954C162.449 161.036 165.101 159.177 168.345 156.824C171.566 154.494 174.3 152.57 174.405 152.57C174.528 152.57 177.239 154.471 180.442 156.783C183.645 159.095 186.315 160.954 186.356 160.895C186.397 160.854 185.477 157.847 184.315 154.188C183.13 150.546 182.151 147.398 182.11 147.211C182.069 146.964 183.764 145.616 188.047 142.464L194.025 138.046L191.004 137.986C189.332 137.968 186.311 137.986 184.292 138.027C180.132 138.11 179.358 137.945 178.806 136.84C178.624 136.492 177.663 133.65 176.642 130.539C174.378 123.421 174.478 123.709 174.277 124.239H174.291Z" fill="white"/>
<path d="M302.762 129.822C301.846 132.604 300.967 135.387 300.785 136.022C300.457 137.228 299.905 138.087 299.195 138.516C298.867 138.699 296.807 138.781 291.85 138.864L284.974 138.964L287.056 140.476C288.218 141.317 290.624 143.053 292.419 144.342C296.151 147.019 296.602 147.43 296.602 148.289C296.602 148.636 295.686 151.766 294.543 155.266C293.399 158.743 292.524 161.649 292.583 161.69C292.665 161.772 301.049 155.8 303.865 153.653L304.498 153.182L310.453 157.5C313.739 159.871 316.45 161.795 316.491 161.754C316.573 161.653 313.739 152.652 313.041 150.852C312.021 148.193 312.367 147.293 315.101 145.452C318.773 142.976 323.015 139.686 323.015 139.316C323.015 138.987 322.505 138.969 316.427 138.868L309.815 138.768L309.246 138.114C308.941 137.767 308.512 136.949 308.33 136.273C307.72 134.126 304.721 125.066 304.576 124.919C304.494 124.837 303.678 127.048 302.762 129.826V129.822Z" fill="white"/>
<path d="M143.426 155.718C142.98 157.107 142.588 158.377 142.588 158.519C142.588 158.989 141.772 160.502 141.403 160.689C141.221 160.771 139.321 160.895 137.18 160.954L133.325 161.055L135.243 162.366C138.916 164.86 139.549 165.537 139.567 167.072C139.585 168.136 139.385 168.954 138.588 171.019C137.831 172.943 137.69 173.966 138.177 173.779C138.341 173.719 139.831 172.696 141.463 171.49L144.461 169.32L147.582 171.59C149.295 172.819 150.762 173.838 150.803 173.838C150.862 173.838 150.662 173.267 150.357 172.55C148.889 169.32 149.031 166.761 150.803 164.614C151.477 163.773 153.473 162.302 154.412 161.936C154.494 161.895 154.635 161.671 154.717 161.406L154.858 160.936L151.473 160.977C148.639 161.018 148.024 160.959 147.595 160.671C147.003 160.282 146.575 159.547 146.352 158.501C146.106 157.354 144.597 153.182 144.415 153.182C144.333 153.182 143.887 154.329 143.417 155.718H143.426Z" fill="white"/>
<path d="M343.519 156.6C342.927 158.501 342.293 160.2 342.111 160.406C341.437 161.183 341.072 161.246 337.254 161.183C335.194 161.164 333.522 161.183 333.522 161.242C333.522 161.301 335.012 162.471 336.848 163.842C338.662 165.212 340.193 166.359 340.216 166.4C340.257 166.418 339.746 168.219 339.054 170.389C338.379 172.577 337.869 174.377 337.892 174.419C337.933 174.46 339.441 173.418 341.259 172.13C343.072 170.818 344.644 169.758 344.749 169.758C344.872 169.758 346.485 170.864 348.317 172.212C350.171 173.541 351.684 174.606 351.684 174.524C351.684 174.464 351.133 172.664 350.458 170.535C349.784 168.406 349.233 166.606 349.233 166.528C349.233 166.45 350.7 165.281 352.495 163.928C354.29 162.581 355.757 161.411 355.757 161.31C355.757 161.21 354.249 161.146 352.349 161.169C348.084 161.228 348.353 161.269 347.615 160.639C347.146 160.25 346.881 159.739 346.576 158.656C346.025 156.732 344.922 153.543 344.763 153.338C344.681 153.256 344.129 154.727 343.519 156.609V156.6Z" fill="white"/>
</g>
</g>
<defs>
<clipPath id="clip0_18_159">
<rect width="1440" height="495" fill="white"/>
</clipPath>
<clipPath id="clip1_18_159">
<rect width="283" height="313" fill="white" transform="translate(102 91)"/>
</clipPath>
</defs>
</svg>
