<svg width="155" height="14" viewBox="0 0 155 14" fill="none" xmlns="http://www.w3.org/2000/svg">
<path d="M2.97472 5.63826H5.95194V0.170538H8.92916V13.841H5.95194V8.37327H2.97472V13.841H0V0.170538H2.97472V5.63826Z" fill="#D60505"/>
<path d="M14.8986 7.48601L17.8758 1.23654V0.154449H20.853V13.841H17.8758L17.8633 8.07062L15.1257 13.841H11.9239V0.154449H14.8986V7.48601Z" fill="#D60505"/>
<path d="M26.8224 7.48601L29.7997 1.23654V0.154449H32.7744V13.841H29.7997L29.7872 8.07062L27.0495 13.841H23.8477V0.154449H26.8249V7.48601H26.8224Z" fill="#D60505"/>
<path d="M41.721 13.841H38.7438C38.332 13.841 37.9452 13.7699 37.5833 13.6278C37.2215 13.4856 36.907 13.2908 36.6375 13.0409C36.368 12.791 36.1534 12.5021 35.9987 12.172C35.8439 11.8419 35.7666 11.4865 35.7666 11.106V2.88716C35.7666 2.50889 35.8439 2.15356 35.9987 1.82114C36.1534 1.49101 36.3655 1.19985 36.6375 0.952251C36.907 0.704656 37.224 0.5075 37.5833 0.367655C37.9427 0.225517 38.3295 0.154449 38.7438 0.154449H41.721C42.1178 0.154449 42.4996 0.225517 42.864 0.367655C43.2283 0.509793 43.5453 0.704656 43.8148 0.952251C44.0843 1.19985 44.2989 1.49101 44.4586 1.82114C44.6184 2.15356 44.6982 2.50889 44.6982 2.88716V11.106C44.6982 11.4842 44.6184 11.8396 44.4586 12.172C44.2989 12.5044 44.0843 12.7933 43.8148 13.0409C43.5453 13.2885 43.2283 13.4856 42.864 13.6278C42.4996 13.7699 42.1178 13.841 41.721 13.841ZM41.721 2.88716H38.7438V11.106H41.721V2.88716Z" fill="#D60505"/>
<path d="M53.6448 13.841H47.6929V0.154449H55.8859V2.88946H50.6676V4.27416H53.6448C54.0416 4.27416 54.4235 4.34752 54.7878 4.49653C55.1522 4.64326 55.4691 4.84272 55.7386 5.09031C56.0082 5.33791 56.2228 5.63134 56.3825 5.96835C56.5422 6.30535 56.6221 6.65612 56.6221 7.02293V11.1151C56.6221 11.4934 56.5422 11.8464 56.3825 12.1789C56.2228 12.509 56.0082 12.8001 55.7386 13.0477C55.4691 13.2953 55.1522 13.4902 54.7878 13.6323C54.4235 13.7745 54.0416 13.8455 53.6448 13.8455V13.841ZM53.6448 11.106V7.00458H50.6676V11.106H53.6448Z" fill="#D60505"/>
<path d="M65.5687 13.841H62.5914C62.1797 13.841 61.7929 13.7699 61.431 13.6278C61.0691 13.4856 60.7547 13.2908 60.4852 13.0409C60.2157 12.791 60.001 12.5021 59.8463 12.172C59.6916 11.8419 59.6142 11.4865 59.6142 11.106V2.88716C59.6142 2.50889 59.6916 2.15356 59.8463 1.82114C60.001 1.49101 60.2132 1.19985 60.4852 0.952251C60.7547 0.704656 61.0716 0.5075 61.431 0.367655C61.7904 0.225517 62.1772 0.154449 62.5914 0.154449H65.5687C65.9655 0.154449 66.3473 0.225517 66.7116 0.367655C67.076 0.509793 67.3929 0.704656 67.6624 0.952251C67.932 1.19985 68.1466 1.49101 68.3063 1.82114C68.466 2.15356 68.5459 2.50889 68.5459 2.88716V11.106C68.5459 11.4842 68.466 11.8396 68.3063 12.172C68.1466 12.5044 67.932 12.7933 67.6624 13.0409C67.3929 13.2885 67.076 13.4856 66.7116 13.6278C66.3473 13.7699 65.9655 13.841 65.5687 13.841ZM65.5687 2.88716H62.5914V11.106H65.5687V2.88716Z" fill="#D60505"/>
<path d="M77.49 9.73959H74.5153V13.841H71.5381V0.154449H77.49C77.8868 0.154449 78.2686 0.225517 78.633 0.367655C78.9974 0.509793 79.3143 0.704656 79.5838 0.952251C79.8533 1.19985 80.068 1.49101 80.2277 1.82114C80.3874 2.15356 80.4672 2.50889 80.4672 2.88716V7.00458C80.4672 7.38285 80.3874 7.7382 80.2277 8.07062C80.068 8.40304 79.8533 8.6919 79.5838 8.93949C79.3143 9.18709 78.9974 9.38425 78.633 9.52638C78.2686 9.66852 77.8868 9.73959 77.49 9.73959ZM77.49 2.88716H74.5153V7.00458H77.49V2.88716Z" fill="#D60505"/>
<path d="M89.4139 13.841H86.4392C86.0249 13.841 85.6406 13.7699 85.2787 13.6278C84.9169 13.4856 84.6024 13.2908 84.3329 13.0409C84.0634 12.7933 83.8488 12.5021 83.6965 12.172C83.5418 11.8419 83.4644 11.4865 83.4644 11.106V2.88716C83.4644 2.50889 83.5418 2.15356 83.6965 1.82114C83.8513 1.49101 84.0634 1.19985 84.3329 0.952251C84.6024 0.704656 84.9194 0.5075 85.2787 0.367655C85.6406 0.225517 86.0249 0.154449 86.4392 0.154449H89.4139C89.8107 0.154449 90.1925 0.225517 90.5569 0.367655C90.9212 0.509793 91.2382 0.704656 91.5077 0.952251C91.7772 1.19985 91.9918 1.49101 92.1515 1.82114C92.3113 2.15356 92.3911 2.50889 92.3911 2.88716V11.106C92.3911 11.4842 92.3113 11.8396 92.1515 12.172C91.9918 12.5044 91.7772 12.7933 91.5077 13.0409C91.2382 13.2885 90.9212 13.4856 90.5569 13.6278C90.1925 13.7699 89.8107 13.841 89.4139 13.841ZM89.4139 2.88716H86.4392V11.106H89.4139V2.88716Z" fill="#D60505"/>
<path d="M98.363 5.63822H101.338V0.170499H104.315V13.841H101.338V8.37323H98.363V13.841H95.3858V0.170499H98.363V5.63822Z" fill="#D60505"/>
<path d="M107.31 0.154449H116.239V13.841H113.262V2.88716H110.287V13.841H107.31V0.154449Z" fill="#D60505"/>
<path d="M125.183 9.73959H122.208V13.841H119.231V0.154449H125.183C125.58 0.154449 125.962 0.225517 126.326 0.367655C126.69 0.509793 127.007 0.704656 127.277 0.952251C127.546 1.19985 127.761 1.49101 127.921 1.82114C128.08 2.15356 128.16 2.50889 128.16 2.88716V7.00458C128.16 7.38285 128.08 7.7382 127.921 8.07062C127.761 8.40304 127.546 8.6919 127.277 8.93949C127.007 9.18709 126.69 9.38425 126.326 9.52638C125.962 9.66852 125.58 9.73959 125.183 9.73959ZM125.183 2.88716H122.208V7.00458H125.183V2.88716Z" fill="#D60505"/>
<path d="M137.107 13.841H134.132C133.718 13.841 133.333 13.7699 132.972 13.6278C132.61 13.4856 132.295 13.2908 132.026 13.0409C131.756 12.7933 131.542 12.5021 131.389 12.172C131.235 11.8419 131.157 11.4865 131.157 11.106V2.88716C131.157 2.50889 131.235 2.15356 131.389 1.82114C131.544 1.49101 131.756 1.19985 132.026 0.952251C132.295 0.704656 132.612 0.5075 132.972 0.367655C133.333 0.225517 133.718 0.154449 134.132 0.154449H137.107C137.504 0.154449 137.885 0.225517 138.25 0.367655C138.614 0.509793 138.931 0.704656 139.201 0.952251C139.47 1.19985 139.685 1.49101 139.844 1.82114C140.004 2.15356 140.084 2.50889 140.084 2.88716V11.106C140.084 11.4842 140.004 11.8396 139.844 12.172C139.685 12.5044 139.47 12.7933 139.201 13.0409C138.931 13.2885 138.614 13.4856 138.25 13.6278C137.885 13.7699 137.504 13.841 137.107 13.841ZM137.107 2.88716H134.132V11.106H137.107V2.88716Z" fill="#D60505"/>
<path d="M151.793 0.154449H155V13.841H152.025V9.0312L150.441 13.841H147.638L146.053 9.0312V13.841H143.076V0.154449H146.266L149.028 8.62312L151.793 0.154449Z" fill="#D60505"/>
</svg>
