<svg width="173" height="169" viewBox="0 0 173 169" fill="none" xmlns="http://www.w3.org/2000/svg">
<g clip-path="url(#clip0_400_607)">
<path d="M12.9363 160.261H15.875V154.378H18.8138V169.088H15.875V163.204H12.9363V169.088H10V154.378H12.9363V160.261Z" fill="#252525"/>
<path d="M24.7063 162.25L27.6451 155.525V154.361H30.5838V169.088H27.6451L27.6328 162.879L24.9305 169.088H21.77V154.361H24.7063V162.25Z" fill="#252525"/>
<path d="M36.4758 162.25L39.4146 155.525V154.361H42.3509V169.088H39.4146L39.4023 162.879L36.7 169.088H33.5396V154.361H36.4783V162.25H36.4758Z" fill="#252525"/>
<path d="M51.1822 169.088H48.2434C47.837 169.088 47.4552 169.012 47.098 168.859C46.7408 168.706 46.4304 168.496 46.1644 168.227C45.8983 167.958 45.6865 167.647 45.5338 167.292C45.381 166.937 45.3047 166.554 45.3047 166.145V157.301C45.3047 156.894 45.381 156.512 45.5338 156.154C45.6865 155.799 45.8959 155.485 46.1644 155.219C46.4304 154.953 46.7433 154.74 47.098 154.59C47.4527 154.437 47.8345 154.361 48.2434 154.361H51.1822C51.5739 154.361 51.9508 154.437 52.3104 154.59C52.67 154.743 52.9829 154.953 53.2489 155.219C53.515 155.485 53.7268 155.799 53.8845 156.154C54.0421 156.512 54.121 156.894 54.121 157.301V166.145C54.121 166.552 54.0421 166.934 53.8845 167.292C53.7268 167.65 53.515 167.961 53.2489 168.227C52.9829 168.493 52.67 168.706 52.3104 168.859C51.9508 169.012 51.5739 169.088 51.1822 169.088ZM51.1822 157.301H48.2434V166.145H51.1822V157.301Z" fill="#252525"/>
<path d="M62.9517 169.088H57.0767V154.361H65.1638V157.304H60.013V158.794H62.9517C63.3434 158.794 63.7203 158.873 64.0799 159.033C64.4396 159.191 64.7524 159.405 65.0184 159.672C65.2845 159.938 65.4963 160.254 65.654 160.617C65.8116 160.979 65.8905 161.357 65.8905 161.751V166.155C65.8905 166.562 65.8116 166.942 65.654 167.299C65.4963 167.655 65.2845 167.968 65.0184 168.234C64.7524 168.501 64.4396 168.711 64.0799 168.864C63.7203 169.016 63.3434 169.093 62.9517 169.093V169.088ZM62.9517 166.145V161.732H60.013V166.145H62.9517Z" fill="#252525"/>
<path d="M74.7217 169.088H71.783C71.3765 169.088 70.9947 169.012 70.6375 168.859C70.2804 168.706 69.97 168.496 69.7039 168.227C69.4379 167.958 69.2261 167.647 69.0733 167.292C68.9206 166.937 68.8442 166.554 68.8442 166.145V157.301C68.8442 156.894 68.9206 156.512 69.0733 156.154C69.2261 155.799 69.4354 155.485 69.7039 155.219C69.97 154.953 70.2828 154.74 70.6375 154.59C70.9923 154.437 71.3741 154.361 71.783 154.361H74.7217C75.1134 154.361 75.4903 154.437 75.85 154.59C76.2096 154.743 76.5224 154.953 76.7885 155.219C77.0545 155.485 77.2664 155.799 77.424 156.154C77.5817 156.512 77.6605 156.894 77.6605 157.301V166.145C77.6605 166.552 77.5817 166.934 77.424 167.292C77.2664 167.65 77.0545 167.961 76.7885 168.227C76.5224 168.493 76.2096 168.706 75.85 168.859C75.4903 169.012 75.1134 169.088 74.7217 169.088ZM74.7217 157.301H71.783V166.145H74.7217V157.301Z" fill="#252525"/>
<path d="M86.4888 164.675H83.5525V169.088H80.6138V154.361H86.4888C86.8805 154.361 87.2574 154.437 87.617 154.59C87.9767 154.743 88.2895 154.953 88.5555 155.219C88.8216 155.485 89.0334 155.799 89.1911 156.154C89.3487 156.512 89.4276 156.894 89.4276 157.301V161.732C89.4276 162.139 89.3487 162.521 89.1911 162.879C89.0334 163.237 88.8216 163.547 88.5555 163.814C88.2895 164.08 87.9767 164.292 87.617 164.445C87.2574 164.598 86.8805 164.675 86.4888 164.675ZM86.4888 157.301H83.5525V161.732H86.4888V157.301Z" fill="#252525"/>
<path d="M98.2588 169.088H95.3225C94.9136 169.088 94.5343 169.012 94.1771 168.859C93.8199 168.706 93.5095 168.496 93.2435 168.227C92.9774 167.961 92.7656 167.647 92.6153 167.292C92.4626 166.937 92.3862 166.554 92.3862 166.145V157.301C92.3862 156.894 92.4626 156.512 92.6153 156.154C92.768 155.799 92.9774 155.485 93.2435 155.219C93.5095 154.953 93.8224 154.74 94.1771 154.59C94.5343 154.437 94.9136 154.361 95.3225 154.361H98.2588C98.6505 154.361 99.0274 154.437 99.387 154.59C99.7467 154.743 100.06 154.953 100.326 155.219C100.592 155.485 100.803 155.799 100.961 156.154C101.119 156.512 101.198 156.894 101.198 157.301V166.145C101.198 166.552 101.119 166.934 100.961 167.292C100.803 167.65 100.592 167.961 100.326 168.227C100.06 168.493 99.7467 168.706 99.387 168.859C99.0274 169.012 98.6505 169.088 98.2588 169.088ZM98.2588 157.301H95.3225V166.145H98.2588V157.301Z" fill="#252525"/>
<path d="M107.092 160.261H110.028V154.378H112.967V169.088H110.028V163.204H107.092V169.088H104.153V154.378H107.092V160.261Z" fill="#252525"/>
<path d="M115.923 154.361H124.737V169.088H121.798V157.301H118.862V169.088H115.923V154.361Z" fill="#252525"/>
<path d="M133.565 164.675H130.629V169.088H127.69V154.361H133.565C133.957 154.361 134.334 154.437 134.694 154.59C135.053 154.743 135.366 154.953 135.632 155.219C135.898 155.485 136.11 155.799 136.268 156.154C136.425 156.512 136.504 156.894 136.504 157.301V161.732C136.504 162.139 136.425 162.521 136.268 162.879C136.11 163.237 135.898 163.547 135.632 163.814C135.366 164.08 135.053 164.292 134.694 164.445C134.334 164.598 133.957 164.675 133.565 164.675ZM133.565 157.301H130.629V161.732H133.565V157.301Z" fill="#252525"/>
<path d="M145.335 169.088H142.399C141.99 169.088 141.611 169.012 141.254 168.859C140.897 168.706 140.586 168.496 140.32 168.227C140.054 167.961 139.842 167.647 139.692 167.292C139.539 166.937 139.463 166.554 139.463 166.145V157.301C139.463 156.894 139.539 156.512 139.692 156.154C139.845 155.799 140.054 155.485 140.32 155.219C140.586 154.953 140.899 154.74 141.254 154.59C141.611 154.437 141.99 154.361 142.399 154.361H145.335C145.727 154.361 146.104 154.437 146.464 154.59C146.823 154.743 147.136 154.953 147.402 155.219C147.668 155.485 147.88 155.799 148.038 156.154C148.195 156.512 148.274 156.894 148.274 157.301V166.145C148.274 166.552 148.195 166.934 148.038 167.292C147.88 167.65 147.668 167.961 147.402 168.227C147.136 168.493 146.823 168.706 146.464 168.859C146.104 169.012 145.727 169.088 145.335 169.088ZM145.335 157.301H142.399V166.145H145.335V157.301Z" fill="#252525"/>
<path d="M159.832 154.361H162.997V169.088H160.061V163.912L158.497 169.088H155.731L154.166 163.912V169.088H151.228V154.361H154.376L157.103 163.473L159.832 154.361Z" fill="#252525"/>
<path d="M86.1493 49.6932C83.7894 50.3124 75.9979 52.3871 75.9659 52.4068C75.956 52.4266 76.8823 52.7053 78.0277 53.0359C79.183 53.3664 80.1314 53.6452 80.1412 53.6452C80.1609 53.6551 79.9048 57.1852 79.8309 58.0116L79.7791 58.4557H80.799L80.7275 56.5561C80.6561 54.7084 80.6659 54.6468 80.8827 54.2841C81.0157 54.0769 81.1709 53.9116 81.2325 53.9116C81.501 53.9116 82.4272 54.4272 82.5725 54.6542C82.6538 54.7874 82.7573 55.0883 82.7992 55.3252L82.8706 55.7692H91.0957V55.3252C91.0957 54.7578 91.3839 54.3039 91.879 54.0868C92.0958 53.993 92.857 53.7759 93.5689 53.5909C94.9286 53.2604 97.7023 52.4956 97.7442 52.4463C97.7639 52.4266 96.0125 51.9307 93.8472 51.3411C91.682 50.754 89.3738 50.1225 88.7235 49.9374C87.0854 49.4737 87.0115 49.4638 86.1468 49.6908L86.1493 49.6932Z" fill="#252525"/>
<path d="M81.0993 61.7292C79.944 64.507 78.8527 67.1169 78.668 67.5511L78.3379 68.3356L79.1015 68.8833C80.6066 69.9662 82.3063 71.846 83.4813 73.7356C84.2228 74.9321 85.1096 76.8119 85.7895 78.5979L86.356 80.0855L86.324 74.0983L86.3043 68.1111L85.819 67.3982C85.3855 66.7889 85.3239 66.6236 85.3239 66.1795C85.3239 65.7355 85.3658 65.622 85.6835 65.3137C86.5285 64.5193 88.0754 64.8178 88.4154 65.8391C88.5706 66.3029 88.4351 66.705 87.8907 67.5117L87.4892 68.1111L87.499 74.0983V80.0855L87.9424 78.8471C89.5805 74.2537 91.7655 71.064 94.8792 68.7426L95.8177 68.0396L95.1156 66.9862C93.3839 64.4058 92.0636 61.2581 91.396 58.098C91.2827 57.5922 91.1792 57.0668 91.1497 56.9311L91.0979 56.7042H83.203L81.0993 61.7317V61.7292Z" fill="#252525"/>
<path d="M65.1936 72.4627C60.2152 82.0516 58.0105 86.3341 58.0105 86.418C58.0105 86.4599 58.6904 86.677 59.5353 86.8916C60.3704 87.1087 61.0921 87.3159 61.134 87.3554C61.1759 87.3949 60.1438 89.4103 58.8259 91.8353C57.5178 94.2603 56.4561 96.2634 56.4759 96.2732C56.4956 96.293 57.1459 96.2412 57.9095 96.1499C60.0329 95.9032 66.1444 95.9131 68.0609 96.1598C74.7488 97.038 80.2322 99.2459 85.4077 103.168C86.191 103.755 86.8413 104.18 86.9226 104.148C86.9941 104.116 87.8907 103.528 88.913 102.857C94.1993 99.3075 97.5396 97.7164 101.148 97.0158C103.932 96.478 106.725 96.2831 113.258 96.1795C115.382 96.1376 117.133 96.0981 117.155 96.0858C117.165 96.066 116.135 94.1147 114.857 91.7391C113.568 89.3659 112.559 87.3924 112.61 87.3529C112.652 87.311 113.374 87.1062 114.219 86.8892C115.054 86.6721 115.734 86.455 115.734 86.4155C115.734 86.3119 106.984 69.4778 106.871 69.3544C106.829 69.3125 106.169 69.5296 105.407 69.8601C98.8008 72.6773 91.9872 78.0552 89.2776 82.5869C88.9573 83.1123 88.7209 83.5564 88.7406 83.5786C88.7603 83.6008 89.3392 83.1543 90.019 82.5869C94.6058 78.778 96.3991 77.436 99.089 75.7733C100.222 75.0604 105.324 72.0779 105.388 72.0779C105.44 72.0779 111.736 84.6813 111.696 84.7232C111.677 84.7429 110.625 85.1056 109.346 85.5274C106.472 86.4772 104.873 87.1161 102.493 88.2731C98.9067 90.0172 95.7118 92.1437 93.2386 94.4551C92.0833 95.5282 91.9306 95.6417 92.342 95.0941C93.7017 93.2982 96 90.9645 97.8771 89.4695C100.269 87.5601 103.493 85.599 106.536 84.2052C107.371 83.8228 108.07 83.4922 108.093 83.4824C108.144 83.4404 104.247 77.5889 103.816 77.061C103.269 76.3703 102.91 76.3283 101.641 76.7724C98.3328 77.9294 95.8892 79.4564 93.6328 81.7876C90.4797 85.0587 88.4696 89.2919 87.3463 95.0201C87.2133 95.6911 87.0778 96.2683 87.0581 96.2905C87.0261 96.3226 86.5531 94.9806 86.0063 93.3179C84.9027 89.995 84.1612 88.0239 83.4617 86.5265C81.6782 82.7176 78.7296 79.7771 74.7735 77.8554C72.6402 76.8119 71.1548 76.3802 70.4232 76.575C70.1769 76.6367 69.1349 78.102 66.9697 81.4274L65.6813 83.3985L67.1864 84.2545C75.5568 89.023 80.0499 92.5532 81.9467 95.8662C82.1315 96.1869 81.8851 95.9896 80.8431 94.9781C76.4535 90.7252 71.2263 87.7427 64.0531 85.3991C62.9815 85.039 62.0849 84.738 62.0627 84.7183C62.011 84.6763 68.2161 72.2802 68.2875 72.2802C68.3196 72.2802 69.2359 72.7242 70.3173 73.2497C74.6873 75.4057 79.0153 78.3907 83.7154 82.4783C84.3756 83.0556 84.9224 83.5095 84.9224 83.4799C84.9224 83.3565 84.1391 82.1996 83.2942 81.0648C82.3039 79.7327 80.2741 77.5963 78.8922 76.4196C76.2121 74.1279 73.3472 72.3024 69.1842 70.2573C67.9895 69.6702 66.9894 69.1842 66.9573 69.1842C66.9376 69.1842 66.142 70.6594 65.2059 72.4553L65.1936 72.4627ZM66.0582 88.5543C68.3467 89.2968 69.9429 89.9678 72.1796 91.115C73.8399 91.9611 76.488 93.53 77.1777 94.0777L77.4363 94.2726L77.1777 94.1788C77.0324 94.127 75.5691 93.5276 73.931 92.8467C68.3023 90.4933 66.6543 89.916 66.036 90.069C65.6124 90.1726 65.233 90.5328 64.5925 91.4208C64.2526 91.8748 63.9939 92.2473 64.0161 92.267C64.026 92.2769 64.5728 92.3706 65.2231 92.4619C72.6944 93.5448 78.4168 95.8169 82.8384 99.4703C84.3238 100.699 84.3016 100.719 82.735 99.6159C76.4683 95.1977 69.3985 93.1452 62.1933 93.6386C61.2449 93.7101 60.432 93.7422 60.4098 93.7101C60.3778 93.6781 60.7399 92.9873 61.203 92.1831C61.6661 91.3666 62.4199 90.0665 62.8731 89.282L63.6983 87.8586L64.0284 87.9302C64.2033 87.9623 65.1222 88.2509 66.0582 88.5494V88.5543ZM110.223 88.2953C110.356 88.4186 110.657 88.8947 110.893 89.3585C111.13 89.8124 111.79 90.9793 112.347 91.9389C112.903 92.8887 113.347 93.6929 113.325 93.7249C113.305 93.7447 112.613 93.7052 111.8 93.6435C108.275 93.3648 104.163 93.7989 100.658 94.84C97.3795 95.8095 93.6697 97.6794 90.3713 100.011C89.7727 100.435 89.7432 100.445 90.1127 100.104C90.9674 99.3297 92.9874 97.8644 94.1747 97.1638C97.9165 94.9559 102.089 93.5202 107.223 92.6839C108.129 92.5384 109.048 92.3854 109.263 92.3336L109.654 92.2621L109.13 91.4159C108.851 90.962 108.469 90.4563 108.285 90.3009C107.573 89.7014 106.501 90.032 99.5127 93.0268C96.1946 94.4502 95.8325 94.5958 95.8325 94.5439C95.8325 94.5242 96.1724 94.2849 96.5838 94.0185C99.8822 91.8106 104.2 89.6718 107.984 88.3816C109.314 87.9277 109.809 87.908 110.221 88.3002L110.223 88.2953Z" fill="#252525"/>
<path d="M29.4184 54.0893C29.3863 54.1929 29.2016 55.0193 29.007 55.9271C27.4403 63.1823 27.1102 70.8617 28.0586 78.0256C29.2656 87.0989 32.3152 95.955 37.2222 104.698C43.9323 116.62 53.5689 125.785 66.3092 132.32C69.8244 134.125 73.7805 135.84 77.3696 137.12C78.2761 137.441 78.5865 137.594 78.4732 137.658C78.3795 137.71 77.3917 137.781 76.2685 137.813C74.0416 137.895 73.9702 137.917 73.7238 138.526C73.6426 138.702 73.549 139.187 73.5169 139.59L73.4455 140.322L73.6918 140.27C73.8248 140.238 74.5885 140.147 75.3817 140.053C79.897 139.58 82.8948 139.444 87.957 139.516C92.1102 139.577 93.4305 139.639 96.719 139.96C97.6256 140.041 98.6774 140.145 99.0592 140.177L99.7489 140.238L99.5642 139.525C99.3055 138.566 99.2046 138.339 98.9361 138.09C98.7291 137.905 98.5247 137.882 96.421 137.831C94.236 137.779 94.1424 137.769 94.1128 137.572C94.0931 137.387 94.2582 137.303 95.4529 136.911C107.698 132.907 118.18 126.372 126.188 117.753C134.186 109.143 140.298 97.9853 143.205 86.6844C145.545 77.6334 145.895 68.385 144.276 58.6604C143.988 56.9262 143.875 56.4007 143.875 56.8127C143.875 56.8941 143.968 57.7921 144.082 58.8158C144.619 63.5548 144.742 67.64 144.493 71.6659C143.545 86.6524 138.236 100.05 128.434 112.271C124.951 116.605 120.963 120.538 116.973 123.574C109.573 129.221 100.306 133.442 89.3906 136.146C88.021 136.486 87.7106 136.528 86.5159 136.518C85.0527 136.518 84.3925 136.405 80.8995 135.497C75.6748 134.155 71.3344 132.524 66.6245 130.139C57.7393 125.649 50.6597 119.775 43.9175 111.321C33.3523 98.0568 28.2507 83.401 28.571 67.2255C28.6326 64.2628 28.736 62.7358 29.2607 57.0594C29.4159 55.3573 29.5292 53.9536 29.5194 53.9314C29.4997 53.9116 29.4578 53.9832 29.4258 54.0868L29.4184 54.0893Z" fill="#252525"/>
<path d="M33.584 56.4846C32.3671 57.464 30.894 59.0329 30.3989 59.8692C29.7289 61.0262 29.522 61.7366 29.522 63.049C29.522 63.9371 29.5737 64.3713 29.7585 65.0423C29.8915 65.5061 30.0467 65.9205 30.0984 65.9501C30.2536 66.0537 31.2734 65.289 31.8498 64.6599C32.478 63.9568 33.1899 62.5236 33.4781 61.3765C33.5914 60.9127 33.85 59.5608 34.0447 58.3841C34.2393 57.2074 34.4363 56.1343 34.4683 55.9986C34.5102 55.8753 34.5201 55.7717 34.5004 55.7717C34.4807 55.7717 34.0668 56.0924 33.584 56.4846Z" fill="#252525"/>
<path d="M138.507 55.9469C138.507 55.9888 138.549 56.1936 138.611 56.3909C138.663 56.5858 138.879 57.7526 139.074 58.9713C139.611 62.161 140.074 63.4191 141.187 64.6797C141.537 65.0818 142.734 65.9896 142.909 65.9896C143.074 65.9896 143.372 64.4823 143.424 63.3994C143.569 60.7993 142.404 58.7123 139.653 56.6376C138.828 56.0184 138.51 55.8211 138.51 55.9469H138.507Z" fill="#252525"/>
<path d="M20.0088 57.908C20.0506 58.0634 20.2157 59.1661 20.3906 60.365C20.9276 64.0506 21.4203 65.5455 22.5337 66.8875C23.0707 67.5388 23.9969 68.2591 24.8024 68.6637L25.236 68.8808V68.5502C25.2261 68.3652 25.1842 67.8792 25.1325 67.487C25.0709 67.0849 24.9872 65.8564 24.9256 64.7512C24.8221 62.5113 24.6891 61.8723 24.1324 60.8091C23.5042 59.6126 22.1124 58.4655 20.5039 57.8365L19.957 57.6194L20.0088 57.908Z" fill="#252525"/>
<path d="M151.649 58.2707C149.114 59.6941 148.649 60.3034 148.351 62.6272C148.228 63.577 147.681 68.7698 147.681 69.0066C147.681 69.1102 148.794 68.7081 149.279 68.4195C150.752 67.5635 151.876 65.3852 152.361 62.4841C152.659 60.6364 152.846 57.7255 152.659 57.7452C152.607 57.7452 152.164 57.982 151.649 58.2707Z" fill="#252525"/>
<path d="M35.2321 64.1542C31.6455 66.4041 29.6773 69.8528 30.0591 73.2694C30.1724 74.2809 30.5838 75.6845 31.0174 76.5529L31.212 76.9353L31.6036 76.7404C32.8599 76.1014 34.2123 74.6336 34.6237 73.489C34.8823 72.7243 35.2617 70.3708 35.6435 67.0282C35.8085 65.5209 35.9736 64.169 36.0032 64.0038C36.0229 63.8484 36.013 63.725 35.9711 63.7349C35.9293 63.7349 35.5992 63.9298 35.2297 64.1592L35.2321 64.1542Z" fill="#252525"/>
<path d="M137.209 64.6698C137.241 65.03 137.322 66.2906 137.374 67.4771C137.436 68.6637 137.529 69.9638 137.581 70.3684C137.941 72.9167 138.901 74.8063 140.456 76.0447C141.239 76.6639 141.65 76.9328 141.806 76.9328C141.98 76.9328 142.508 75.6845 142.754 74.683C143.074 73.3607 143.052 71.5648 142.692 70.1735C141.941 67.2527 140.116 65.0226 137.837 64.2381C137.507 64.1246 137.219 64.0309 137.187 64.0309C137.167 64.0309 137.167 64.3195 137.206 64.6698H137.209Z" fill="#252525"/>
<path d="M154.329 67.5191C154.216 67.5512 153.578 67.7362 152.918 67.9533C151.95 68.2641 151.506 68.4688 150.691 69.0165C149.156 70.0477 148.661 70.6274 148.062 72.1865C147.548 73.4964 145.693 79.412 145.764 79.4934C145.846 79.5748 147.033 79.2763 147.794 78.9877C149.577 78.297 150.711 77.1499 151.556 75.127C152.349 73.2596 154.585 67.603 154.566 67.5413C154.546 67.5092 154.443 67.4994 154.329 67.5216V67.5191Z" fill="#252525"/>
<path d="M18.607 67.6942C18.5134 67.7658 18.4321 67.8694 18.4321 67.9212C18.4321 68.1161 21.1122 74.0514 21.9473 75.7043C22.6075 77.0142 22.8957 77.4804 23.3391 77.9245C24.2259 78.8027 25.5241 79.3479 26.6055 79.2862L27.1622 79.2541L26.4503 76.8292C24.8516 71.3181 24.5954 70.7088 23.514 69.6653C22.8538 69.0264 22.2774 68.7353 20.4003 68.1062C19.0603 67.6622 18.7524 67.5906 18.607 67.6942Z" fill="#252525"/>
<path d="M36.7469 73.7332C35.1605 75.0036 33.6849 76.8612 33.0469 78.3783C32.1404 80.5468 32.037 82.6091 32.7168 84.9625C32.9632 85.7988 33.7071 87.5108 34.0569 88.0585L34.2121 88.2953L34.6974 87.9129C35.9857 86.8916 36.8922 85.7865 37.2937 84.775C37.4169 84.4543 37.5524 83.7957 37.6041 83.1863C37.7371 81.7827 37.7371 73.1115 37.6139 73.1115C37.5524 73.1115 37.1705 73.3903 36.7493 73.7307L36.7469 73.7332Z" fill="#252525"/>
<path d="M135.105 77.4163C135.105 79.7376 135.147 82.0097 135.209 82.4734C135.322 83.5169 135.724 84.7331 136.219 85.5398C136.652 86.2626 137.766 87.4689 138.446 87.9549L138.919 88.2953L139.177 87.7181C139.527 86.9138 140.106 85.0957 140.333 84.0547C140.478 83.3738 140.517 82.7645 140.508 81.3707C140.508 79.708 140.476 79.4909 140.219 78.6349C139.756 77.0981 139.219 76.1878 138.148 75.1245C137.241 74.2167 135.746 73.2151 135.293 73.2151C135.118 73.2151 135.108 73.484 135.108 77.4163H135.105Z" fill="#252525"/>
<path d="M18.8433 77.7074C18.8433 77.9862 22.5752 86.418 23.0679 87.2543C24.3242 89.3907 26.3761 90.8979 28.8813 91.5369C30.1179 91.8477 30.3347 91.8674 30.2312 91.6084C30.1894 91.5147 29.7263 90.2047 29.2016 88.6974C27.6349 84.2274 27.1102 82.8336 26.7284 82.1133C25.6568 80.0584 23.7404 78.8619 20.0799 77.964C19.5946 77.8406 19.1216 77.7271 19.028 77.6951C18.9246 77.663 18.8433 77.6753 18.8433 77.7049V77.7074Z" fill="#252525"/>
<path d="M152.422 78.0774C149.393 78.9754 147.784 79.9572 146.599 81.6273C145.929 82.5573 145.774 82.9594 144.188 87.5725C142.549 92.3608 142.559 91.9685 144.116 91.5985C145.929 91.1643 147.146 90.4736 148.415 89.1415C149.93 87.5528 150.868 85.8383 152.558 81.5755C153.157 80.0682 153.765 78.5708 153.908 78.2427C154.238 77.5199 154.29 77.5199 152.422 78.0774Z" fill="#252525"/>
<path d="M131.972 85.3128C130.396 92.2892 130.211 93.5695 130.509 95.284C130.736 96.5742 131.169 97.6572 131.901 98.7722C132.529 99.7121 133.798 101.177 133.911 101.084C133.943 101.052 134.448 99.7738 135.034 98.2443C136.992 93.165 137.394 91.6379 137.177 89.9555C136.983 88.4063 136.569 87.4565 135.384 85.8062C134.394 84.4346 132.736 82.1946 132.704 82.1946C132.684 82.1946 132.354 83.5983 131.972 85.3128Z" fill="#252525"/>
<path d="M39.6535 83.1148C37.3035 85.747 35.9536 88.9367 35.9536 91.8254C35.9536 94.5094 37.2518 97.9162 39.3752 100.827C39.5402 101.054 41.1365 98.9474 41.7351 97.7213C42.3731 96.3991 42.58 95.4814 42.58 93.9124C42.58 92.642 42.548 92.3854 41.9001 89.3709C41.5281 87.607 41.0552 85.3547 40.8384 84.3655C40.6315 83.3738 40.427 82.5178 40.3851 82.4759C40.3433 82.4241 40.0132 82.7127 39.6535 83.1148Z" fill="#252525"/>
<path d="M20.3091 91.0632C20.3288 91.1051 20.8658 92.013 21.5161 93.0861C23.0212 95.5727 23.876 96.8629 24.9377 98.2049C25.8959 99.4137 29.6796 103.252 30.4014 103.748C31.4433 104.451 32.8327 104.759 34.2466 104.604C34.69 104.552 35.0718 104.491 35.1014 104.458C35.2344 104.313 32.5346 98.7501 31.4951 97.038C29.2781 93.3944 27.7434 92.156 24.7751 91.5985C23.4769 91.3518 20.2721 90.9695 20.3115 91.0607L20.3091 91.0632Z" fill="#252525"/>
<path d="M150.711 91.2284C148.959 91.3937 148.341 91.5072 147.062 91.9192C145.01 92.5803 144.372 93.0638 143.269 94.7685C141.485 97.524 137.847 104.088 137.941 104.389C138.002 104.574 138.096 104.597 138.983 104.597C141.271 104.597 143.486 103.731 145.094 102.191C146.001 101.313 147.629 99.0436 150.649 94.3984L152.824 91.0755L152.494 91.0854C152.309 91.0952 151.516 91.1569 150.711 91.2309V91.2284Z" fill="#252525"/>
<path d="M128.324 94.4897C128.21 94.7364 127.469 96.3054 126.663 97.9779C123.025 105.524 122.552 106.896 122.84 109.022C122.902 109.508 123.077 110.27 123.222 110.724C123.491 111.612 124.469 113.677 124.614 113.677C124.799 113.677 127.705 110.663 128.333 109.807C129.188 108.672 130.065 106.916 130.425 105.677C130.642 104.935 130.703 104.439 130.745 103.242C130.807 101.488 130.703 100.61 130.198 98.6292C129.888 97.3908 128.806 94.3466 128.612 94.1296C128.56 94.0876 128.437 94.243 128.324 94.4897Z" fill="#252525"/>
<path d="M44.0458 95.0152C43.1688 96.9443 42.5825 98.639 42.2204 100.309C42.149 100.659 42.0874 101.609 42.0874 102.529C42.0874 103.953 42.1194 104.244 42.3756 105.152C42.8904 107.009 43.829 108.702 45.376 110.571C46.2726 111.645 48.2507 113.677 48.4059 113.677C48.561 113.677 49.5193 111.654 49.8075 110.724C50.1992 109.454 50.3223 108.277 50.1893 107.226C50.044 106.163 49.6745 105.09 48.6941 102.88C47.7876 100.805 44.5828 94.1789 44.499 94.169C44.467 94.169 44.2625 94.5514 44.0458 95.0152Z" fill="#252525"/>
<path d="M119.182 105.502C116.852 108.475 115.421 110.384 114.576 111.664C113.576 113.172 111.957 116.413 111.433 117.96C111.051 119.065 111.041 119.137 111.051 120.54C111.061 121.811 111.093 122.099 111.339 122.913C111.669 124.018 112.236 125.36 112.391 125.412C112.453 125.432 113.751 124.154 115.288 122.573C120.03 117.701 120.658 116.978 121.244 115.688C121.986 114.099 122.109 112.57 121.717 110.073C121.407 108.112 120.687 104.157 120.594 103.963C120.542 103.839 120.182 104.231 119.182 105.499V105.502Z" fill="#252525"/>
<path d="M51.7438 107.453C51.3841 109.259 51.0737 111.129 51.0319 111.612C50.8373 114.452 52.1551 117.124 55.3599 120.459C57.1015 122.255 60.7103 125.259 60.9049 125.062C61.0798 124.887 61.5133 123.574 61.6784 122.699C61.8952 121.584 61.9247 119.201 61.7301 118.219C61.5035 117.042 60.9985 115.619 60.3999 114.472C59.7816 113.263 58.8135 111.943 55.185 107.34C53.175 104.801 52.6503 104.182 52.4434 104.182C52.4113 104.182 52.0936 105.657 51.7413 107.453H51.7438Z" fill="#252525"/>
<path d="M27.8617 106.101C27.47 106.173 26.5019 106.309 25.7087 106.39C24.9254 106.471 24.2652 106.565 24.2455 106.585C24.1223 106.708 30.2338 112.261 32.9139 114.449C35.1088 116.255 35.934 116.741 37.4489 117.143C38.8309 117.503 41.5824 117.328 42.9939 116.783L43.292 116.67L41.8066 115.039C35.53 108.124 35.2319 107.823 34.0348 107.113C32.5715 106.257 31.3965 105.936 29.7165 105.946C29.0982 105.956 28.2632 106.018 27.8617 106.101Z" fill="#252525"/>
<path d="M142.116 106.04C140.983 106.205 139.818 106.617 139.002 107.165C137.332 108.29 135.396 110.105 133.447 112.387C131.521 114.637 129.851 116.783 129.974 116.825C130.046 116.845 130.644 116.971 131.295 117.094C132.696 117.363 134.748 117.415 135.623 117.198C137.147 116.825 138.788 115.661 143.559 111.551C148.114 107.619 148.764 107.051 148.797 106.915C148.858 106.637 148.324 106.471 146.55 106.254C144.323 105.985 142.993 105.924 142.118 106.037L142.116 106.04Z" fill="#252525"/>
<path d="M38.634 118.88C38.262 118.952 36.7175 119.272 35.1804 119.603C32.4485 120.18 32.1406 120.294 32.1406 120.656C32.1406 120.841 40.5307 126.592 43.5286 128.459C45.9722 129.986 46.827 130.368 48.374 130.615C49.4776 130.79 51.2191 130.677 52.4976 130.356C53.611 130.067 55.0028 129.591 55.0742 129.468C55.1358 129.364 50.5491 124.998 48.9405 123.616C45.9304 121.036 43.4375 119.435 41.7353 118.993C40.8387 118.766 39.4567 118.715 38.634 118.88Z" fill="#252525"/>
<path d="M132.065 118.85C130.706 119.045 129.242 119.645 128.252 120.429C126.469 121.813 118.997 128.294 118.47 128.903C117.884 129.594 117.842 129.542 119.234 129.986C122.008 130.874 124.274 130.936 126.439 130.171C127.439 129.821 128.294 129.335 130.881 127.633C132.819 126.362 141.291 120.459 141.249 120.407C141.229 120.397 140.362 120.19 139.322 119.963C138.28 119.736 136.891 119.415 136.241 119.25C135.056 118.952 133.58 118.725 132.994 118.744C132.829 118.754 132.408 118.796 132.065 118.848V118.85Z" fill="#252525"/>
<path d="M85.4005 4.27513C84.6295 6.63843 83.7575 9.35448 83.4717 10.3264C82.9199 12.1495 82.777 12.5022 82.4691 12.855C81.9937 13.3953 82.1169 13.3854 74.9141 13.3731C69.1794 13.3509 68.199 13.3731 68.3419 13.5063C68.5513 13.7061 74.4633 18.0133 76.8897 19.7451C77.9267 20.4728 78.9071 21.2252 79.0722 21.4028C79.6683 22.022 79.6338 22.1873 78.178 26.6154C76.3256 32.2375 75.3772 35.2397 75.4215 35.2841C75.4437 35.3063 78.013 33.461 81.134 31.1989C84.255 28.9244 86.8686 27.0792 86.9228 27.1014C86.9893 27.1236 89.5808 28.991 92.6796 31.2433C95.7884 33.4956 98.3478 35.3408 98.3699 35.3408C98.3921 35.3408 97.5546 32.6692 96.483 29.3981C94.3645 22.8608 94.2439 22.3304 94.6848 21.6002C94.9607 21.1463 95.5002 20.7392 101.146 16.6294C103.452 14.9395 105.358 13.526 105.371 13.4717C105.393 13.4051 102.767 13.3607 98.3576 13.3607H91.31L90.0759 9.57157C87.684 2.24981 86.9228 -0.00247192 86.8563 -0.00247192C86.8243 -0.00247192 86.1715 1.91924 85.4005 4.27267V4.27513Z" fill="#D60505"/>
<path d="M49.0835 17.9467C49.0392 18.0577 48.4997 19.6686 47.8913 21.5262C46.9207 24.442 46.7335 24.9157 46.4675 25.1155C46.1694 25.3375 46.0044 25.3474 42.3537 25.3795L38.5479 25.4115L40.1244 26.5833C40.9964 27.2346 42.3414 28.2065 43.1124 28.7468C44.5362 29.7409 44.8441 30.0937 44.8441 30.6586C44.8441 30.814 44.349 32.4693 43.7406 34.3244C43.1346 36.1795 42.6493 37.7362 42.6592 37.7707C42.6813 37.8151 44.115 36.8111 45.8689 35.5406C47.6105 34.2825 49.0885 33.2439 49.1451 33.2439C49.2116 33.2439 50.6773 34.2702 52.409 35.5184C54.1407 36.7667 55.5843 37.7707 55.6064 37.7386C55.6286 37.7164 55.131 36.0932 54.5029 34.1172C53.8624 32.1511 53.3328 30.4514 53.3106 30.3503C53.2884 30.217 54.2048 29.4893 56.5203 27.7872L59.7522 25.4017L58.119 25.3696C57.215 25.3597 55.5818 25.3696 54.4905 25.3918C52.2415 25.4362 51.8228 25.3474 51.5247 24.7504C51.4262 24.5629 50.9064 23.0285 50.3546 21.3485C49.1303 17.5051 49.1845 17.6605 49.0761 17.9467H49.0835Z" fill="#252525"/>
<path d="M118.54 20.9612C118.045 22.4636 117.569 23.9659 117.471 24.3088C117.293 24.9601 116.995 25.4239 116.611 25.6557C116.434 25.7544 115.32 25.7988 112.64 25.8432L108.923 25.8975L110.049 26.714C110.677 27.168 111.977 28.1054 112.948 28.801C114.965 30.2466 115.209 30.4687 115.209 30.9324C115.209 31.1199 114.714 32.8098 114.096 34.6994C113.478 36.5767 113.005 38.1457 113.037 38.1679C113.081 38.2123 117.613 34.988 119.136 33.8286L119.478 33.5745L122.698 35.9057C124.474 37.186 125.94 38.2246 125.962 38.2024C126.006 38.1481 124.474 33.2883 124.097 32.3164C123.545 30.8806 123.732 30.3947 125.21 29.4005C127.196 28.0634 129.489 26.2873 129.489 26.0875C129.489 25.9098 129.213 25.9 125.927 25.8457L122.353 25.7914L122.045 25.4387C121.88 25.2512 121.648 24.8096 121.55 24.4445C121.22 23.2851 119.599 18.3932 119.52 18.3142C119.476 18.2698 119.035 19.4638 118.54 20.9637V20.9612Z" fill="#252525"/>
<path d="M32.3968 34.9437C32.1553 35.6936 31.9435 36.3794 31.9435 36.4559C31.9435 36.71 31.5026 37.5265 31.303 37.6276C31.2045 37.672 30.1773 37.7387 29.0195 37.7707L26.9355 37.825L27.9726 38.533C29.9581 39.8799 30.3005 40.245 30.3103 41.0739C30.3202 41.6487 30.2118 42.0903 29.7807 43.2053C29.3718 44.2439 29.2954 44.7965 29.559 44.6953C29.6477 44.6632 30.4532 44.1107 31.3351 43.4594L32.9559 42.2876L34.6433 43.5137C35.5695 44.1773 36.3627 44.7274 36.3849 44.7274C36.4169 44.7274 36.3085 44.419 36.1435 44.0317C35.3503 42.2876 35.4267 40.9062 36.3849 39.7467C36.7495 39.2928 37.8284 38.4985 38.3358 38.3011C38.3802 38.2789 38.4565 38.158 38.5009 38.0149L38.5773 37.7609L36.747 37.7831C35.2148 37.8053 34.8823 37.7732 34.6507 37.6178C34.3305 37.4081 34.0989 37.0109 33.9782 36.446C33.8452 35.8268 33.0298 33.5745 32.9313 33.5745C32.887 33.5745 32.6456 34.1937 32.3918 34.9437H32.3968Z" fill="#252525"/>
<path d="M140.574 35.4198C140.254 36.446 139.911 37.3637 139.813 37.4747C139.448 37.8941 139.251 37.9286 137.187 37.8941C136.073 37.8842 135.169 37.8941 135.169 37.9261C135.169 37.9582 135.975 38.5897 136.968 39.3298C137.948 40.0699 138.776 40.6891 138.788 40.7113C138.81 40.7211 138.534 41.6931 138.16 42.8649C137.795 44.0465 137.519 45.0185 137.532 45.0407C137.554 45.0629 138.369 44.5004 139.352 43.8048C140.333 43.0968 141.182 42.5244 141.239 42.5244C141.306 42.5244 142.178 43.1214 143.168 43.8492C144.17 44.567 144.988 45.1418 144.988 45.0974C144.988 45.0653 144.69 44.0934 144.326 42.9438C143.961 41.7942 143.663 40.8223 143.663 40.7803C143.663 40.7384 144.456 40.1069 145.427 39.3767C146.397 38.6489 147.19 38.0174 147.19 37.9631C147.19 37.9089 146.375 37.8743 145.348 37.8867C143.042 37.9187 143.188 37.9409 142.789 37.6005C142.535 37.3908 142.392 37.1145 142.227 36.5299C141.929 35.4913 141.333 33.7694 141.246 33.6584C141.202 33.614 140.904 34.4083 140.574 35.4247V35.4198Z" fill="#252525"/>
</g>
<defs>
<clipPath id="clip0_400_607">
<rect width="153" height="169" fill="white" transform="translate(10)"/>
</clipPath>
</defs>
</svg>
