<svg width="153" height="169" viewBox="0 0 153 169" fill="none" xmlns="http://www.w3.org/2000/svg">
<g clip-path="url(#clip0_400_1241)">
<path d="M2.93629 160.261H5.87505V154.378H8.8138V169.088H5.87505V163.204H2.93629V169.088H0V154.378H2.93629V160.261Z" fill="white"/>
<path d="M14.7063 162.25L17.6451 155.525V154.361H20.5838V169.088H17.6451L17.6328 162.879L14.9305 169.088H11.77V154.361H14.7063V162.25Z" fill="white"/>
<path d="M26.4758 162.25L29.4146 155.525V154.361H32.3509V169.088H29.4146L29.4023 162.879L26.7 169.088H23.5396V154.361H26.4783V162.25H26.4758Z" fill="white"/>
<path d="M41.1822 169.088H38.2434C37.837 169.088 37.4552 169.012 37.098 168.859C36.7408 168.706 36.4304 168.496 36.1644 168.227C35.8983 167.958 35.6865 167.647 35.5338 167.292C35.381 166.937 35.3047 166.554 35.3047 166.145V157.301C35.3047 156.894 35.381 156.512 35.5338 156.154C35.6865 155.799 35.8959 155.485 36.1644 155.219C36.4304 154.953 36.7433 154.74 37.098 154.59C37.4527 154.437 37.8345 154.361 38.2434 154.361H41.1822C41.5739 154.361 41.9508 154.437 42.3104 154.59C42.67 154.743 42.9829 154.953 43.2489 155.219C43.515 155.485 43.7268 155.799 43.8845 156.154C44.0421 156.512 44.121 156.894 44.121 157.301V166.145C44.121 166.552 44.0421 166.934 43.8845 167.292C43.7268 167.65 43.515 167.961 43.2489 168.227C42.9829 168.493 42.67 168.706 42.3104 168.859C41.9508 169.012 41.5739 169.088 41.1822 169.088ZM41.1822 157.301H38.2434V166.145H41.1822V157.301Z" fill="white"/>
<path d="M52.9517 169.088H47.0767V154.361H55.1638V157.304H50.013V158.794H52.9517C53.3434 158.794 53.7203 158.873 54.0799 159.033C54.4396 159.191 54.7524 159.405 55.0184 159.672C55.2845 159.938 55.4963 160.254 55.654 160.617C55.8116 160.979 55.8905 161.357 55.8905 161.751V166.155C55.8905 166.562 55.8116 166.942 55.654 167.299C55.4963 167.655 55.2845 167.968 55.0184 168.234C54.7524 168.501 54.4396 168.711 54.0799 168.864C53.7203 169.016 53.3434 169.093 52.9517 169.093V169.088ZM52.9517 166.145V161.732H50.013V166.145H52.9517Z" fill="white"/>
<path d="M64.7217 169.088H61.783C61.3765 169.088 60.9947 169.012 60.6375 168.859C60.2804 168.706 59.97 168.496 59.7039 168.227C59.4379 167.958 59.2261 167.647 59.0733 167.292C58.9206 166.937 58.8442 166.554 58.8442 166.145V157.301C58.8442 156.894 58.9206 156.512 59.0733 156.154C59.2261 155.799 59.4354 155.485 59.7039 155.219C59.97 154.953 60.2828 154.74 60.6375 154.59C60.9923 154.437 61.3741 154.361 61.783 154.361H64.7217C65.1134 154.361 65.4903 154.437 65.85 154.59C66.2096 154.743 66.5224 154.953 66.7885 155.219C67.0545 155.485 67.2664 155.799 67.424 156.154C67.5817 156.512 67.6605 156.894 67.6605 157.301V166.145C67.6605 166.552 67.5817 166.934 67.424 167.292C67.2664 167.65 67.0545 167.961 66.7885 168.227C66.5224 168.493 66.2096 168.706 65.85 168.859C65.4903 169.012 65.1134 169.088 64.7217 169.088ZM64.7217 157.301H61.783V166.145H64.7217V157.301Z" fill="white"/>
<path d="M76.4888 164.675H73.5525V169.088H70.6138V154.361H76.4888C76.8805 154.361 77.2574 154.437 77.617 154.59C77.9767 154.743 78.2895 154.953 78.5555 155.219C78.8216 155.485 79.0334 155.799 79.1911 156.154C79.3487 156.512 79.4276 156.894 79.4276 157.301V161.732C79.4276 162.139 79.3487 162.521 79.1911 162.879C79.0334 163.237 78.8216 163.547 78.5555 163.814C78.2895 164.08 77.9767 164.292 77.617 164.445C77.2574 164.598 76.8805 164.675 76.4888 164.675ZM76.4888 157.301H73.5525V161.732H76.4888V157.301Z" fill="white"/>
<path d="M88.2588 169.088H85.3225C84.9136 169.088 84.5343 169.012 84.1771 168.859C83.8199 168.706 83.5095 168.496 83.2435 168.227C82.9774 167.961 82.7656 167.647 82.6153 167.292C82.4626 166.937 82.3862 166.554 82.3862 166.145V157.301C82.3862 156.894 82.4626 156.512 82.6153 156.154C82.768 155.799 82.9774 155.485 83.2435 155.219C83.5095 154.953 83.8224 154.74 84.1771 154.59C84.5343 154.437 84.9136 154.361 85.3225 154.361H88.2588C88.6505 154.361 89.0274 154.437 89.387 154.59C89.7467 154.743 90.0595 154.953 90.3255 155.219C90.5916 155.485 90.8034 155.799 90.9611 156.154C91.1187 156.512 91.1976 156.894 91.1976 157.301V166.145C91.1976 166.552 91.1187 166.934 90.9611 167.292C90.8034 167.65 90.5916 167.961 90.3255 168.227C90.0595 168.493 89.7467 168.706 89.387 168.859C89.0274 169.012 88.6505 169.088 88.2588 169.088ZM88.2588 157.301H85.3225V166.145H88.2588V157.301Z" fill="white"/>
<path d="M97.0921 160.261H100.028V154.378H102.967V169.088H100.028V163.204H97.0921V169.088H94.1533V154.378H97.0921V160.261Z" fill="white"/>
<path d="M105.923 154.361H114.737V169.088H111.798V157.301H108.862V169.088H105.923V154.361Z" fill="white"/>
<path d="M123.565 164.675H120.629V169.088H117.69V154.361H123.565C123.957 154.361 124.334 154.437 124.694 154.59C125.053 154.743 125.366 154.953 125.632 155.219C125.898 155.485 126.11 155.799 126.268 156.154C126.425 156.512 126.504 156.894 126.504 157.301V161.732C126.504 162.139 126.425 162.521 126.268 162.879C126.11 163.237 125.898 163.547 125.632 163.814C125.366 164.08 125.053 164.292 124.694 164.445C124.334 164.598 123.957 164.675 123.565 164.675ZM123.565 157.301H120.629V161.732H123.565V157.301Z" fill="white"/>
<path d="M135.335 169.088H132.399C131.99 169.088 131.611 169.012 131.254 168.859C130.897 168.706 130.586 168.496 130.32 168.227C130.054 167.961 129.842 167.647 129.692 167.292C129.539 166.937 129.463 166.554 129.463 166.145V157.301C129.463 156.894 129.539 156.512 129.692 156.154C129.845 155.799 130.054 155.485 130.32 155.219C130.586 154.953 130.899 154.74 131.254 154.59C131.611 154.437 131.99 154.361 132.399 154.361H135.335C135.727 154.361 136.104 154.437 136.464 154.59C136.823 154.743 137.136 154.953 137.402 155.219C137.668 155.485 137.88 155.799 138.038 156.154C138.195 156.512 138.274 156.894 138.274 157.301V166.145C138.274 166.552 138.195 166.934 138.038 167.292C137.88 167.65 137.668 167.961 137.402 168.227C137.136 168.493 136.823 168.706 136.464 168.859C136.104 169.012 135.727 169.088 135.335 169.088ZM135.335 157.301H132.399V166.145H135.335V157.301Z" fill="white"/>
<path d="M149.832 154.361H152.997V169.088H150.061V163.912L148.497 169.088H145.731L144.166 163.912V169.088H141.228V154.361H144.376L147.103 163.473L149.832 154.361Z" fill="white"/>
<path d="M76.1493 49.6932C73.7894 50.3124 65.9979 52.3871 65.9659 52.4068C65.956 52.4266 66.8823 52.7053 68.0277 53.0359C69.183 53.3664 70.1314 53.6452 70.1412 53.6452C70.1609 53.6551 69.9048 57.1852 69.8309 58.0116L69.7791 58.4557H70.799L70.7275 56.5561C70.6561 54.7084 70.6659 54.6468 70.8827 54.2841C71.0157 54.0769 71.1709 53.9116 71.2325 53.9116C71.501 53.9116 72.4272 54.4272 72.5725 54.6542C72.6538 54.7874 72.7573 55.0883 72.7992 55.3252L72.8706 55.7692H81.0957V55.3252C81.0957 54.7578 81.3839 54.3039 81.879 54.0868C82.0958 53.993 82.857 53.7759 83.5689 53.5909C84.9286 53.2604 87.7023 52.4956 87.7442 52.4463C87.7639 52.4266 86.0125 51.9307 83.8472 51.3411C81.682 50.754 79.3738 50.1225 78.7235 49.9374C77.0854 49.4737 77.0115 49.4638 76.1468 49.6908L76.1493 49.6932Z" fill="white"/>
<path d="M71.0993 61.7292C69.944 64.507 68.8527 67.1169 68.668 67.5511L68.3379 68.3356L69.1015 68.8833C70.6066 69.9662 72.3063 71.846 73.4813 73.7356C74.2228 74.9321 75.1096 76.8119 75.7895 78.5979L76.356 80.0855L76.324 74.0983L76.3043 68.1111L75.819 67.3982C75.3855 66.7889 75.3239 66.6236 75.3239 66.1795C75.3239 65.7355 75.3658 65.622 75.6835 65.3137C76.5285 64.5193 78.0754 64.8178 78.4154 65.8391C78.5706 66.3029 78.4351 66.705 77.8907 67.5117L77.4892 68.1111L77.499 74.0983V80.0855L77.9424 78.8471C79.5805 74.2537 81.7655 71.064 84.8792 68.7426L85.8177 68.0396L85.1156 66.9862C83.3839 64.4058 82.0636 61.2581 81.396 58.098C81.2827 57.5922 81.1792 57.0668 81.1497 56.9311L81.0979 56.7042H73.203L71.0993 61.7317V61.7292Z" fill="white"/>
<path d="M55.1936 72.4627C50.2152 82.0516 48.0105 86.3341 48.0105 86.418C48.0105 86.4599 48.6904 86.677 49.5353 86.8916C50.3704 87.1087 51.0921 87.3159 51.134 87.3554C51.1759 87.3949 50.1438 89.4103 48.8259 91.8353C47.5178 94.2603 46.4561 96.2634 46.4759 96.2732C46.4956 96.293 47.1459 96.2412 47.9095 96.1499C50.0329 95.9032 56.1444 95.9131 58.0609 96.1598C64.7488 97.038 70.2322 99.2459 75.4077 103.168C76.191 103.755 76.8413 104.18 76.9226 104.148C76.9941 104.116 77.8907 103.528 78.913 102.857C84.1993 99.3075 87.5396 97.7164 91.1484 97.0158C93.9319 96.478 96.7254 96.2831 103.258 96.1795C105.382 96.1376 107.133 96.0981 107.155 96.0858C107.165 96.066 106.135 94.1147 104.857 91.7391C103.568 89.3659 102.559 87.3924 102.61 87.3529C102.652 87.311 103.374 87.1062 104.219 86.8892C105.054 86.6721 105.734 86.455 105.734 86.4155C105.734 86.3119 96.984 69.4778 96.8707 69.3544C96.8288 69.3125 96.1686 69.5296 95.4075 69.8601C88.8008 72.6773 81.9872 78.0552 79.2776 82.5869C78.9573 83.1123 78.7209 83.5564 78.7406 83.5786C78.7603 83.6008 79.3392 83.1543 80.019 82.5869C84.6058 78.778 86.3991 77.436 89.089 75.7733C90.2222 75.0604 95.3237 72.0779 95.3878 72.0779C95.4395 72.0779 101.736 84.6813 101.696 84.7232C101.677 84.7429 100.625 85.1056 99.3463 85.5274C96.4716 86.4772 94.8729 87.1161 92.4934 88.2731C88.9067 90.0172 85.7118 92.1437 83.2386 94.4551C82.0833 95.5282 81.9306 95.6417 82.342 95.0941C83.7017 93.2982 86 90.9645 87.8771 89.4695C90.269 87.5601 93.4935 85.599 96.5357 84.2052C97.3708 83.8228 98.0703 83.4922 98.0925 83.4824C98.1442 83.4404 94.2472 77.5889 93.8162 77.061C93.2693 76.3703 92.9097 76.3283 91.641 76.7724C88.3328 77.9294 85.8892 79.4564 83.6328 81.7876C80.4797 85.0587 78.4696 89.2919 77.3463 95.0201C77.2133 95.6911 77.0778 96.2683 77.0581 96.2905C77.0261 96.3226 76.5531 94.9806 76.0063 93.3179C74.9027 89.995 74.1612 88.0239 73.4617 86.5265C71.6782 82.7176 68.7296 79.7771 64.7735 77.8554C62.6402 76.8119 61.1548 76.3802 60.4232 76.575C60.1769 76.6367 59.1349 78.102 56.9697 81.4274L55.6813 83.3985L57.1864 84.2545C65.5568 89.023 70.0499 92.5532 71.9467 95.8662C72.1315 96.1869 71.8851 95.9896 70.8431 94.9781C66.4535 90.7252 61.2263 87.7427 54.0531 85.3991C52.9815 85.039 52.0849 84.738 52.0627 84.7183C52.011 84.6763 58.2161 72.2802 58.2875 72.2802C58.3196 72.2802 59.2359 72.7242 60.3173 73.2497C64.6873 75.4057 69.0153 78.3907 73.7154 82.4783C74.3756 83.0556 74.9224 83.5095 74.9224 83.4799C74.9224 83.3565 74.1391 82.1996 73.2942 81.0648C72.3039 79.7327 70.2741 77.5963 68.8922 76.4196C66.2121 74.1279 63.3472 72.3024 59.1842 70.2573C57.9895 69.6702 56.9894 69.1842 56.9573 69.1842C56.9376 69.1842 56.142 70.6594 55.2059 72.4553L55.1936 72.4627ZM56.0582 88.5543C58.3467 89.2968 59.9429 89.9678 62.1796 91.115C63.8399 91.9611 66.488 93.53 67.1777 94.0777L67.4363 94.2726L67.1777 94.1788C67.0324 94.127 65.5691 93.5276 63.931 92.8467C58.3023 90.4933 56.6543 89.916 56.036 90.069C55.6124 90.1726 55.233 90.5328 54.5925 91.4208C54.2526 91.8748 53.9939 92.2473 54.0161 92.267C54.026 92.2769 54.5728 92.3706 55.2231 92.4619C62.6944 93.5448 68.4168 95.8169 72.8384 99.4703C74.3238 100.699 74.3016 100.719 72.735 99.6159C66.4683 95.1977 59.3985 93.1452 52.1933 93.6386C51.2449 93.7101 50.432 93.7422 50.4098 93.7101C50.3778 93.6781 50.7399 92.9873 51.203 92.1831C51.6661 91.3666 52.4199 90.0665 52.8731 89.282L53.6983 87.8586L54.0284 87.9302C54.2033 87.9623 55.1222 88.2509 56.0582 88.5494V88.5543ZM100.223 88.2953C100.356 88.4186 100.657 88.8947 100.893 89.3585C101.13 89.8124 101.79 90.9793 102.347 91.9389C102.903 92.8887 103.347 93.6929 103.325 93.7249C103.305 93.7447 102.613 93.7052 101.8 93.6435C98.2748 93.3648 94.1635 93.7989 90.6582 94.84C87.3795 95.8095 83.6697 97.6794 80.3713 100.011C79.7727 100.435 79.7432 100.445 80.1127 100.104C80.9674 99.3297 82.9874 97.8644 84.1747 97.1638C87.9165 94.9559 92.0894 93.5202 97.2229 92.6839C98.1295 92.5384 99.0483 92.3854 99.2626 92.3336L99.6543 92.2621L99.1296 91.4159C98.8512 90.962 98.4694 90.4563 98.2846 90.3009C97.5727 89.7014 96.5012 90.032 89.5127 93.0268C86.1946 94.4502 85.8325 94.5958 85.8325 94.5439C85.8325 94.5242 86.1724 94.2849 86.5838 94.0185C89.8822 91.8106 94.2004 89.6718 97.9841 88.3816C99.3143 87.9277 99.8095 87.908 100.221 88.3002L100.223 88.2953Z" fill="white"/>
<path d="M19.4184 54.0893C19.3863 54.1929 19.2016 55.0193 19.007 55.9271C17.4403 63.1823 17.1102 70.8617 18.0586 78.0256C19.2656 87.0989 22.3152 95.955 27.2222 104.698C33.9323 116.62 43.5689 125.785 56.3092 132.32C59.8244 134.125 63.7805 135.84 67.3696 137.12C68.2761 137.441 68.5865 137.594 68.4732 137.658C68.3795 137.71 67.3917 137.781 66.2685 137.813C64.0416 137.895 63.9702 137.917 63.7238 138.526C63.6426 138.702 63.549 139.187 63.5169 139.59L63.4455 140.322L63.6918 140.27C63.8248 140.238 64.5885 140.147 65.3817 140.053C69.897 139.58 72.8948 139.444 77.957 139.516C82.1102 139.577 83.4305 139.639 86.719 139.96C87.6256 140.041 88.6774 140.145 89.0592 140.177L89.7489 140.238L89.5642 139.525C89.3055 138.566 89.2046 138.339 88.9361 138.09C88.7291 137.905 88.5247 137.882 86.421 137.831C84.236 137.779 84.1424 137.769 84.1128 137.572C84.0931 137.387 84.2582 137.303 85.4529 136.911C97.6981 132.907 108.18 126.372 116.188 117.753C124.186 109.143 130.298 97.9853 133.205 86.6844C135.545 77.6334 135.895 68.385 134.276 58.6604C133.988 56.9262 133.875 56.4007 133.875 56.8127C133.875 56.8941 133.968 57.7921 134.082 58.8158C134.619 63.5548 134.742 67.64 134.493 71.6659C133.545 86.6524 128.236 100.05 118.434 112.271C114.951 116.605 110.963 120.538 106.973 123.574C99.5727 129.221 90.3057 133.442 79.3906 136.146C78.021 136.486 77.7106 136.528 76.5159 136.518C75.0527 136.518 74.3925 136.405 70.8995 135.497C65.6748 134.155 61.3344 132.524 56.6245 130.139C47.7393 125.649 40.6597 119.775 33.9175 111.321C23.3523 98.0568 18.2507 83.401 18.571 67.2255C18.6326 64.2628 18.736 62.7358 19.2607 57.0594C19.4159 55.3573 19.5292 53.9536 19.5194 53.9314C19.4997 53.9116 19.4578 53.9832 19.4258 54.0868L19.4184 54.0893Z" fill="white"/>
<path d="M23.584 56.4846C22.3671 57.464 20.894 59.0329 20.3989 59.8692C19.7289 61.0262 19.522 61.7366 19.522 63.049C19.522 63.9371 19.5737 64.3713 19.7585 65.0423C19.8915 65.5061 20.0467 65.9205 20.0984 65.9501C20.2536 66.0537 21.2734 65.289 21.8498 64.6599C22.478 63.9568 23.1899 62.5236 23.4781 61.3765C23.5914 60.9127 23.85 59.5608 24.0447 58.3841C24.2393 57.2074 24.4363 56.1343 24.4683 55.9986C24.5102 55.8753 24.5201 55.7717 24.5004 55.7717C24.4807 55.7717 24.0668 56.0924 23.584 56.4846Z" fill="white"/>
<path d="M128.507 55.9469C128.507 55.9888 128.549 56.1936 128.611 56.3909C128.663 56.5858 128.879 57.7526 129.074 58.9713C129.611 62.161 130.074 63.4191 131.187 64.6797C131.537 65.0818 132.734 65.9896 132.909 65.9896C133.074 65.9896 133.372 64.4823 133.424 63.3994C133.569 60.7993 132.404 58.7123 129.653 56.6376C128.828 56.0184 128.51 55.8211 128.51 55.9469H128.507Z" fill="white"/>
<path d="M10.0088 57.908C10.0506 58.0634 10.2157 59.1661 10.3906 60.365C10.9276 64.0506 11.4203 65.5455 12.5337 66.8875C13.0707 67.5388 13.9969 68.2591 14.8024 68.6637L15.236 68.8808V68.5502C15.2261 68.3652 15.1842 67.8792 15.1325 67.487C15.0709 67.0849 14.9872 65.8564 14.9256 64.7512C14.8221 62.5113 14.6891 61.8723 14.1324 60.8091C13.5042 59.6126 12.1124 58.4655 10.5039 57.8365L9.95703 57.6194L10.0088 57.908Z" fill="white"/>
<path d="M141.649 58.2707C139.114 59.6941 138.649 60.3034 138.351 62.6272C138.228 63.577 137.681 68.7698 137.681 69.0066C137.681 69.1102 138.794 68.7081 139.279 68.4195C140.752 67.5635 141.876 65.3852 142.361 62.4841C142.659 60.6364 142.846 57.7255 142.659 57.7452C142.607 57.7452 142.164 57.982 141.649 58.2707Z" fill="white"/>
<path d="M25.2321 64.1542C21.6455 66.4041 19.6773 69.8528 20.0591 73.2694C20.1724 74.2809 20.5838 75.6845 21.0174 76.5529L21.212 76.9353L21.6036 76.7404C22.8599 76.1014 24.2123 74.6336 24.6237 73.489C24.8823 72.7243 25.2617 70.3708 25.6435 67.0282C25.8085 65.5209 25.9736 64.169 26.0032 64.0038C26.0229 63.8484 26.013 63.725 25.9711 63.7349C25.9293 63.7349 25.5992 63.9298 25.2297 64.1592L25.2321 64.1542Z" fill="white"/>
<path d="M127.209 64.6698C127.241 65.03 127.322 66.2906 127.374 67.4771C127.436 68.6637 127.529 69.9638 127.581 70.3684C127.941 72.9167 128.901 74.8063 130.456 76.0447C131.239 76.6639 131.65 76.9328 131.806 76.9328C131.98 76.9328 132.508 75.6845 132.754 74.683C133.074 73.3607 133.052 71.5648 132.692 70.1735C131.941 67.2527 130.116 65.0226 127.837 64.2381C127.507 64.1246 127.219 64.0309 127.187 64.0309C127.167 64.0309 127.167 64.3195 127.206 64.6698H127.209Z" fill="white"/>
<path d="M144.329 67.5191C144.216 67.5512 143.578 67.7362 142.918 67.9533C141.95 68.2641 141.506 68.4688 140.691 69.0165C139.156 70.0477 138.661 70.6274 138.062 72.1865C137.548 73.4964 135.693 79.412 135.764 79.4934C135.846 79.5748 137.033 79.2763 137.794 78.9877C139.577 78.297 140.711 77.1499 141.556 75.127C142.349 73.2596 144.585 67.603 144.566 67.5413C144.546 67.5092 144.443 67.4994 144.329 67.5216V67.5191Z" fill="white"/>
<path d="M8.60703 67.6942C8.51342 67.7658 8.43213 67.8694 8.43213 67.9212C8.43213 68.1161 11.1122 74.0514 11.9473 75.7043C12.6075 77.0142 12.8957 77.4804 13.3391 77.9245C14.2259 78.8027 15.5241 79.3479 16.6055 79.2862L17.1622 79.2541L16.4503 76.8292C14.8516 71.3181 14.5954 70.7088 13.514 69.6653C12.8538 69.0264 12.2774 68.7353 10.4003 68.1062C9.06028 67.6622 8.75236 67.5906 8.60703 67.6942Z" fill="white"/>
<path d="M26.7469 73.7332C25.1605 75.0036 23.6849 76.8612 23.0469 78.3783C22.1404 80.5468 22.037 82.6091 22.7168 84.9625C22.9632 85.7988 23.7071 87.5108 24.0569 88.0585L24.2121 88.2953L24.6974 87.9129C25.9857 86.8916 26.8922 85.7865 27.2937 84.775C27.4169 84.4543 27.5524 83.7957 27.6041 83.1863C27.7371 81.7827 27.7371 73.1115 27.6139 73.1115C27.5524 73.1115 27.1705 73.3903 26.7493 73.7307L26.7469 73.7332Z" fill="white"/>
<path d="M125.105 77.4163C125.105 79.7376 125.147 82.0097 125.209 82.4734C125.322 83.5169 125.724 84.7331 126.219 85.5398C126.652 86.2626 127.766 87.4689 128.446 87.9549L128.919 88.2953L129.177 87.7181C129.527 86.9138 130.106 85.0957 130.333 84.0547C130.478 83.3738 130.517 82.7645 130.508 81.3707C130.508 79.708 130.476 79.4909 130.219 78.6349C129.756 77.0981 129.219 76.1878 128.148 75.1245C127.241 74.2167 125.746 73.2151 125.293 73.2151C125.118 73.2151 125.108 73.484 125.108 77.4163H125.105Z" fill="white"/>
<path d="M8.84326 77.7074C8.84326 77.9862 12.5752 86.418 13.0679 87.2543C14.3242 89.3907 16.3761 90.8979 18.8813 91.5369C20.1179 91.8477 20.3347 91.8674 20.2312 91.6084C20.1894 91.5147 19.7263 90.2047 19.2016 88.6974C17.6349 84.2274 17.1102 82.8336 16.7284 82.1133C15.6568 80.0584 13.7404 78.8619 10.0799 77.964C9.59458 77.8406 9.12162 77.7271 9.02801 77.6951C8.92455 77.663 8.84326 77.6753 8.84326 77.7049V77.7074Z" fill="white"/>
<path d="M142.422 78.0774C139.393 78.9754 137.784 79.9572 136.599 81.6273C135.929 82.5573 135.774 82.9594 134.188 87.5725C132.549 92.3608 132.559 91.9685 134.116 91.5985C135.929 91.1643 137.146 90.4736 138.415 89.1415C139.93 87.5528 140.868 85.8383 142.558 81.5755C143.157 80.0682 143.765 78.5708 143.908 78.2427C144.238 77.5199 144.29 77.5199 142.422 78.0774Z" fill="white"/>
<path d="M121.972 85.3128C120.396 92.2892 120.211 93.5695 120.509 95.284C120.736 96.5742 121.169 97.6572 121.901 98.7722C122.529 99.7121 123.798 101.177 123.911 101.084C123.943 101.052 124.448 99.7738 125.034 98.2443C126.992 93.165 127.394 91.6379 127.177 89.9555C126.983 88.4063 126.569 87.4565 125.384 85.8062C124.394 84.4346 122.736 82.1946 122.704 82.1946C122.684 82.1946 122.354 83.5983 121.972 85.3128Z" fill="white"/>
<path d="M29.6535 83.1148C27.3035 85.747 25.9536 88.9367 25.9536 91.8254C25.9536 94.5094 27.2518 97.9162 29.3752 100.827C29.5402 101.054 31.1365 98.9474 31.7351 97.7213C32.3731 96.3991 32.58 95.4814 32.58 93.9124C32.58 92.642 32.548 92.3854 31.9001 89.3709C31.5281 87.607 31.0552 85.3547 30.8384 84.3655C30.6315 83.3738 30.427 82.5178 30.3851 82.4759C30.3433 82.4241 30.0132 82.7127 29.6535 83.1148Z" fill="white"/>
<path d="M10.3091 91.0632C10.3288 91.1051 10.8658 92.013 11.5161 93.0861C13.0212 95.5727 13.876 96.8629 14.9377 98.2049C15.8959 99.4137 19.6796 103.252 20.4014 103.748C21.4433 104.451 22.8327 104.759 24.2466 104.604C24.69 104.552 25.0718 104.491 25.1014 104.458C25.2344 104.313 22.5346 98.7501 21.4951 97.038C19.2781 93.3944 17.7434 92.156 14.7751 91.5985C13.4769 91.3518 10.2721 90.9695 10.3115 91.0607L10.3091 91.0632Z" fill="white"/>
<path d="M140.711 91.2284C138.959 91.3937 138.341 91.5072 137.062 91.9192C135.01 92.5803 134.372 93.0638 133.269 94.7685C131.485 97.524 127.847 104.088 127.941 104.389C128.002 104.574 128.096 104.597 128.983 104.597C131.271 104.597 133.486 103.731 135.094 102.191C136.001 101.313 137.629 99.0436 140.649 94.3984L142.824 91.0755L142.494 91.0854C142.309 91.0952 141.516 91.1569 140.711 91.2309V91.2284Z" fill="white"/>
<path d="M118.324 94.4897C118.21 94.7364 117.469 96.3054 116.663 97.9779C113.025 105.524 112.552 106.896 112.84 109.022C112.902 109.508 113.077 110.27 113.222 110.724C113.491 111.612 114.469 113.677 114.614 113.677C114.799 113.677 117.705 110.663 118.333 109.807C119.188 108.672 120.065 106.916 120.425 105.677C120.642 104.935 120.703 104.439 120.745 103.242C120.807 101.488 120.703 100.61 120.198 98.6292C119.888 97.3908 118.806 94.3466 118.612 94.1296C118.56 94.0876 118.437 94.243 118.324 94.4897Z" fill="white"/>
<path d="M34.0458 95.0152C33.1688 96.9443 32.5825 98.639 32.2204 100.309C32.149 100.659 32.0874 101.609 32.0874 102.529C32.0874 103.953 32.1194 104.244 32.3756 105.152C32.8904 107.009 33.829 108.702 35.376 110.571C36.2726 111.645 38.2507 113.677 38.4059 113.677C38.561 113.677 39.5193 111.654 39.8075 110.724C40.1992 109.454 40.3223 108.277 40.1893 107.226C40.044 106.163 39.6745 105.09 38.6941 102.88C37.7876 100.805 34.5828 94.1789 34.499 94.169C34.467 94.169 34.2625 94.5514 34.0458 95.0152Z" fill="white"/>
<path d="M109.182 105.502C106.852 108.475 105.421 110.384 104.576 111.664C103.576 113.172 101.957 116.413 101.433 117.96C101.051 119.065 101.041 119.137 101.051 120.54C101.061 121.811 101.093 122.099 101.339 122.913C101.669 124.018 102.236 125.36 102.391 125.412C102.453 125.432 103.751 124.154 105.288 122.573C110.03 117.701 110.658 116.978 111.244 115.688C111.986 114.099 112.109 112.57 111.717 110.073C111.407 108.112 110.687 104.157 110.594 103.963C110.542 103.839 110.182 104.231 109.182 105.499V105.502Z" fill="white"/>
<path d="M41.7438 107.453C41.3841 109.259 41.0737 111.129 41.0319 111.612C40.8373 114.452 42.1551 117.124 45.3599 120.459C47.1015 122.255 50.7103 125.259 50.9049 125.062C51.0798 124.887 51.5133 123.574 51.6784 122.699C51.8952 121.584 51.9247 119.201 51.7301 118.219C51.5035 117.042 50.9985 115.619 50.3999 114.472C49.7816 113.263 48.8135 111.943 45.185 107.34C43.175 104.801 42.6503 104.182 42.4434 104.182C42.4113 104.182 42.0936 105.657 41.7413 107.453H41.7438Z" fill="white"/>
<path d="M17.8617 106.101C17.47 106.173 16.5019 106.309 15.7087 106.39C14.9254 106.471 14.2652 106.565 14.2455 106.585C14.1223 106.708 20.2338 112.261 22.9139 114.449C25.1088 116.255 25.934 116.741 27.4489 117.143C28.8309 117.503 31.5824 117.328 32.9939 116.783L33.292 116.67L31.8066 115.039C25.53 108.124 25.2319 107.823 24.0348 107.113C22.5715 106.257 21.3965 105.936 19.7165 105.946C19.0982 105.956 18.2632 106.018 17.8617 106.101Z" fill="white"/>
<path d="M132.116 106.04C130.983 106.205 129.818 106.617 129.002 107.165C127.332 108.29 125.396 110.105 123.447 112.387C121.521 114.637 119.851 116.783 119.974 116.825C120.046 116.845 120.644 116.971 121.295 117.094C122.696 117.363 124.748 117.415 125.623 117.198C127.147 116.825 128.788 115.661 133.559 111.551C138.114 107.619 138.764 107.051 138.797 106.915C138.858 106.637 138.324 106.471 136.55 106.254C134.323 105.985 132.993 105.924 132.118 106.037L132.116 106.04Z" fill="white"/>
<path d="M28.634 118.88C28.262 118.952 26.7175 119.272 25.1804 119.603C22.4485 120.18 22.1406 120.294 22.1406 120.656C22.1406 120.841 30.5307 126.592 33.5286 128.459C35.9722 129.986 36.827 130.368 38.374 130.615C39.4776 130.79 41.2191 130.677 42.4976 130.356C43.611 130.067 45.0028 129.591 45.0742 129.468C45.1358 129.364 40.5491 124.998 38.9405 123.616C35.9304 121.036 33.4375 119.435 31.7353 118.993C30.8387 118.766 29.4567 118.715 28.634 118.88Z" fill="white"/>
<path d="M122.065 118.85C120.706 119.045 119.242 119.645 118.252 120.429C116.469 121.813 108.997 128.294 108.47 128.903C107.884 129.594 107.842 129.542 109.234 129.986C112.008 130.874 114.274 130.936 116.439 130.171C117.439 129.821 118.294 129.335 120.881 127.633C122.819 126.362 131.291 120.459 131.249 120.407C131.229 120.397 130.362 120.19 129.322 119.963C128.28 119.736 126.891 119.415 126.241 119.25C125.056 118.952 123.58 118.725 122.994 118.744C122.829 118.754 122.408 118.796 122.065 118.848V118.85Z" fill="white"/>
<path d="M75.4005 4.27513C74.6295 6.63843 73.7575 9.35448 73.4717 10.3264C72.9199 12.1495 72.777 12.5022 72.4691 12.855C71.9937 13.3953 72.1169 13.3854 64.9141 13.3731C59.1794 13.3509 58.199 13.3731 58.3419 13.5063C58.5513 13.7061 64.4633 18.0133 66.8897 19.7451C67.9267 20.4728 68.9071 21.2252 69.0722 21.4028C69.6683 22.022 69.6338 22.1873 68.178 26.6154C66.3256 32.2375 65.3772 35.2397 65.4215 35.2841C65.4437 35.3063 68.013 33.461 71.134 31.1989C74.255 28.9244 76.8686 27.0792 76.9228 27.1014C76.9893 27.1236 79.5808 28.991 82.6796 31.2433C85.7884 33.4956 88.3478 35.3408 88.3699 35.3408C88.3921 35.3408 87.5546 32.6692 86.483 29.3981C84.3645 22.8608 84.2439 22.3304 84.6848 21.6002C84.9607 21.1463 85.5002 20.7392 91.1461 16.6294C93.4518 14.9395 95.3584 13.526 95.3707 13.4717C95.3929 13.4051 92.767 13.3607 88.3576 13.3607H81.31L80.0759 9.57157C77.684 2.24981 76.9228 -0.00247192 76.8563 -0.00247192C76.8243 -0.00247192 76.1715 1.91924 75.4005 4.27267V4.27513Z" fill="#D60505"/>
<path d="M39.0835 17.9467C39.0392 18.0577 38.4997 19.6686 37.8913 21.5262C36.9207 24.442 36.7335 24.9157 36.4675 25.1155C36.1694 25.3375 36.0044 25.3474 32.3537 25.3795L28.5479 25.4115L30.1244 26.5833C30.9964 27.2346 32.3414 28.2065 33.1124 28.7468C34.5362 29.7409 34.8441 30.0937 34.8441 30.6586C34.8441 30.814 34.349 32.4693 33.7406 34.3244C33.1346 36.1795 32.6493 37.7362 32.6592 37.7707C32.6813 37.8151 34.115 36.8111 35.8689 35.5406C37.6105 34.2825 39.0885 33.2439 39.1451 33.2439C39.2116 33.2439 40.6773 34.2702 42.409 35.5184C44.1407 36.7667 45.5843 37.7707 45.6064 37.7386C45.6286 37.7164 45.131 36.0932 44.5029 34.1172C43.8624 32.1511 43.3328 30.4514 43.3106 30.3503C43.2884 30.217 44.2048 29.4893 46.5203 27.7872L49.7522 25.4017L48.119 25.3696C47.215 25.3597 45.5818 25.3696 44.4905 25.3918C42.2415 25.4362 41.8228 25.3474 41.5247 24.7504C41.4262 24.5629 40.9064 23.0285 40.3546 21.3485C39.1303 17.5051 39.1845 17.6605 39.0761 17.9467H39.0835Z" fill="white"/>
<path d="M108.54 20.9612C108.045 22.4636 107.569 23.9659 107.471 24.3088C107.293 24.9601 106.995 25.4239 106.611 25.6557C106.434 25.7544 105.32 25.7988 102.64 25.8432L98.9229 25.8975L100.049 26.714C100.677 27.168 101.977 28.1054 102.948 28.801C104.965 30.2466 105.209 30.4687 105.209 30.9324C105.209 31.1199 104.714 32.8098 104.096 34.6994C103.478 36.5767 103.005 38.1457 103.037 38.1679C103.081 38.2123 107.613 34.988 109.136 33.8286L109.478 33.5745L112.698 35.9057C114.474 37.186 115.94 38.2246 115.962 38.2024C116.006 38.1481 114.474 33.2883 114.097 32.3164C113.545 30.8806 113.732 30.3947 115.21 29.4005C117.196 28.0634 119.489 26.2873 119.489 26.0875C119.489 25.9098 119.213 25.9 115.927 25.8457L112.353 25.7914L112.045 25.4387C111.88 25.2512 111.648 24.8096 111.55 24.4445C111.22 23.2851 109.599 18.3932 109.52 18.3142C109.476 18.2698 109.035 19.4638 108.54 20.9637V20.9612Z" fill="white"/>
<path d="M22.3968 34.9437C22.1553 35.6936 21.9435 36.3794 21.9435 36.4559C21.9435 36.71 21.5026 37.5265 21.303 37.6276C21.2045 37.672 20.1773 37.7387 19.0195 37.7707L16.9355 37.825L17.9726 38.533C19.9581 39.8799 20.3005 40.245 20.3103 41.0739C20.3202 41.6487 20.2118 42.0903 19.7807 43.2053C19.3718 44.2439 19.2954 44.7965 19.559 44.6953C19.6477 44.6632 20.4532 44.1107 21.3351 43.4594L22.9559 42.2876L24.6433 43.5137C25.5695 44.1773 26.3627 44.7274 26.3849 44.7274C26.4169 44.7274 26.3085 44.419 26.1435 44.0317C25.3503 42.2876 25.4267 40.9062 26.3849 39.7467C26.7495 39.2928 27.8284 38.4985 28.3358 38.3011C28.3802 38.2789 28.4565 38.158 28.5009 38.0149L28.5773 37.7609L26.747 37.7831C25.2148 37.8053 24.8823 37.7732 24.6507 37.6178C24.3305 37.4081 24.0989 37.0109 23.9782 36.446C23.8452 35.8268 23.0298 33.5745 22.9313 33.5745C22.887 33.5745 22.6456 34.1937 22.3918 34.9437H22.3968Z" fill="white"/>
<path d="M130.574 35.4198C130.254 36.446 129.911 37.3637 129.813 37.4747C129.448 37.8941 129.251 37.9286 127.187 37.8941C126.073 37.8842 125.169 37.8941 125.169 37.9261C125.169 37.9582 125.975 38.5897 126.968 39.3298C127.948 40.0699 128.776 40.6891 128.788 40.7113C128.81 40.7211 128.534 41.6931 128.16 42.8649C127.795 44.0465 127.519 45.0185 127.532 45.0407C127.554 45.0629 128.369 44.5004 129.352 43.8048C130.333 43.0968 131.182 42.5244 131.239 42.5244C131.306 42.5244 132.178 43.1214 133.168 43.8492C134.17 44.567 134.988 45.1418 134.988 45.0974C134.988 45.0653 134.69 44.0934 134.326 42.9438C133.961 41.7942 133.663 40.8223 133.663 40.7803C133.663 40.7384 134.456 40.1069 135.427 39.3767C136.397 38.6489 137.19 38.0174 137.19 37.9631C137.19 37.9089 136.375 37.8743 135.348 37.8867C133.042 37.9187 133.188 37.9409 132.789 37.6005C132.535 37.3908 132.392 37.1145 132.227 36.5299C131.929 35.4913 131.333 33.7694 131.246 33.6584C131.202 33.614 130.904 34.4083 130.574 35.4247V35.4198Z" fill="white"/>
</g>
<defs>
<clipPath id="clip0_400_1241">
<rect width="153" height="169" fill="white"/>
</clipPath>
</defs>
</svg>
